<?xml version="1.0" encoding="UTF-8"?>
<!-- Created with Inkscape (http://www.inkscape.org/) -->
<svg width="210mm" height="297mm" version="1.1" viewBox="0 0 210 297" xmlns="http://www.w3.org/2000/svg">
 <g transform="matrix(.26458 0 0 .26458 -148.5 95.515)">
  <g id="Districts" transform="matrix(1 0 0 1.7 -92.87 -178.77)" fill="none" stroke="#000">
   <path id="County Durham" d="m1373.1 223.86-0.291-0.3367-0.3134-0.11718-0.2685-0.10247h-0.3134l-0.291-0.23429h-0.2686l-0.3133-0.10248-0.291-0.11711v-0.33677l0.291-0.11712v-0.33676l0.3133-0.21965v-0.11711h0.2686v-0.21965l-0.2686-0.11712v-0.55635l-0.6043-0.79065-0.2686-0.33676v-0.33677h0.2686l0.291-0.11712 0.3133-0.11717v-0.10247h0.2686v-0.2343l0.291-0.21959v-0.89311h-0.291v-0.33677h-0.2686v-0.23429h-0.3133v-0.10247l-0.5596-0.2343h-0.3134l-0.6043-0.33676-0.5596-0.21959-0.5819-0.11712-0.3134-0.21964h-0.2909l-0.2686-0.11712-0.3134-0.11718-0.291-0.10247-0.5819-0.11712-0.5596-0.33676h-0.3134v-0.11712l-0.2909-0.10253-0.2686-0.23423-0.3134-0.10253v-0.11712l-0.3134-0.11712h-0.2462v-0.21965l-0.3133-0.33676-0.3134-0.45388v-0.21959l-0.2686-0.11718v-0.11712l-0.291-0.10247h-0.8729l-0.3133-0.11711-0.291 0.11711h-0.2686v-0.11711h-0.6267v-0.11718h-0.2462v-0.21959h-0.3134v-1.6838l0.3134-0.45388v-0.21959l0.2462-0.11718v-0.11712h0.8953v-0.21958h0.291v-0.33677h-0.291v-0.11718l-0.2686-0.21958-0.3134-0.11712h-0.8729v0.11712h-1.7459v-0.11712h-0.3133v-0.89318l0.3133-0.23423 0.291-0.21965v-0.11712l0.2686-0.21965 0.3134-0.21958 0.2909-0.33677 0.2686-0.23429 0.6268-0.55636 0.2462-0.21964 0.3133-0.11712 0.582-0.23429 0.291-0.21959 0.3133-0.11718v-0.21959l0.291-0.45388 0.5819-0.43929v-0.23424l0.291-0.33676 0.2686-0.33677 0.6267-0.45388v-0.43924l-0.3133-0.11711h-0.3134l-0.5596-0.11718-0.3133 0.11718h-0.2686l-0.291-0.11718v-0.10247l-0.3133-0.23424v-0.10253l-0.291-0.23423v-0.43929l-0.2686-0.11712v-0.11712l-0.3134-0.10247v-1.3617l-0.3133-0.55635v-0.89318h-0.2462v-0.11711h-0.8954l-0.2909-0.11712-0.3134-0.10253h-0.2686v-0.11712l-0.291-0.11712-0.5819-0.21964-0.291-0.11712-0.8729-0.33677-0.3134-0.11711h-0.2686l-0.3133-0.10247h-0.291l-0.2686 0.10247h-0.3134l-0.2909-0.10247h-0.2686v-0.11718h-0.3134v-0.89312l0.3134-0.11712 0.5595-0.33676 0.3134-0.11712 0.5596-0.33676 0.3133-0.11718v-0.10247l0.582-0.11712v-0.11711l0.291-0.10253v-0.23424l0.2686-0.10253v-0.45388h-0.2686l-0.291-0.11712-0.3134-0.10247-0.2686-0.11718v-0.11711l-0.3133-0.21959-0.291-0.11718v-0.10247l-0.2686-0.11712v-0.90782l0.2686-0.10247v-0.23424h0.291v-0.10253l0.3133-0.11711 0.2686-0.11712h0.6044l0.2686-0.10253h0.6043v-0.11712l0.2686-0.11712 0.3133-0.21964h0.291v-0.55636l-0.291-0.33676-0.3133-0.35141-0.2686-0.43924-0.291-0.45388v-0.11718l-0.3133-0.21958-0.2686-0.33677v-0.11712l-0.291-0.10253v-0.23423l-0.3134-0.10247v-0.45394l-0.2686-0.11712v-0.55635l0.2686-0.11718v-0.33671l0.3134-0.21964v-0.2343l0.291-0.21959v-1.0103l-0.291-0.11712v-0.33676l-0.3134-0.11712v-0.89318l0.3134-0.11711v-0.43924l0.291-0.11712v-0.33676l-0.291-0.11712v-0.79065l-0.3134-0.10253v-0.23423h-0.2686v-0.10253h-0.3133v-0.11712h-0.291l-0.582-0.11712-0.8729-0.21964-0.6043-0.11712-0.5596-0.10247-0.3134-0.11718h-0.2686l-0.3133-0.11711v-0.10248l-0.5596-0.11711-0.6043-0.33677-0.582-0.33676-0.2909-0.11712v-0.10253l-0.2686-0.35141v-0.10247l-0.3134-0.11712-0.291-0.11712-0.2686-0.21964-0.3133-0.11712-0.3134-0.10253v-0.11712h-0.2462v-0.33676l-0.3133-0.21959v-0.11718l-0.3134-0.11712v-0.10247l-0.2686-0.11717-0.291-0.21959-0.3133-0.2343-0.2686-0.45387-0.291-0.21963v-2.5916l-0.3134-0.21962v-0.21963l-0.2909-0.11713v-0.11713h-0.582v-0.10249h-0.3134l-0.2462 0.10249h-0.3133v0.11713h-0.3134l-0.8729 0.11713-1.1415 0.21963-0.291 0.11713h-0.3134l-0.2686 0.10249h-0.291l-0.3133-0.10249h-0.582l-0.2909-0.11713v-0.11713l-0.2686-0.1025h-0.3134l-0.291-0.11713h-0.2686v-0.11713l-0.3133-0.10249-0.291-0.11714-0.3134-0.11713-0.5595-0.33675-0.3134-0.21963v-0.55638l0.3134-0.68816 0.5595-0.55637 0.9177-1.1274 0.2686-0.21962v-0.21963h-0.2686l-0.3133-0.11713v-0.11713h-0.6044l-0.2685-0.1025-0.6044-0.11713h-0.2686v0.11713l-0.6043-0.11713v0.11713h-0.2686l-0.3134 0.1025-0.8729 0.67351-0.291 0.23426-0.5819 0.33676-0.291 0.10249-0.2686 0.11714-0.3133 0.11713-0.3134 0.10249-0.2462 0.11714h-0.3134l-0.3133 0.11712-0.2686 0.1025h-0.291l-0.582-0.1025-0.2909-0.11712v-0.11714l-0.3134-0.10249v-0.33676l-0.291-0.11713-0.2686-0.11713h-0.3133v-0.1025h-0.3134l-0.2462 0.33676-0.8953-0.11713-0.6043-0.11713-1.4325-0.1025h-0.582l-0.291-0.11713v-0.11713l-0.3133-0.10249v-0.23427l-0.2686-0.10249v-0.45389l-0.3134-0.57102v-0.55638l-0.291-0.11714v-0.10249l-0.2685-0.11713h-0.3134v-0.11713l-0.291-0.10249-0.2686-0.11714v-0.21962l-0.3133-0.11713v-0.21963h-1.1639l-0.582-0.11713h-1.4773l-0.2686 0.11713h-2.9321l-0.582 0.10249-0.6043-0.10249-0.2686-0.11713-0.8953-0.21962h-1.1415l-0.6267 0.21962-0.2686 0.11713h-0.6044v0.10249h-0.5595l-0.582-0.10249-0.6043-0.11713-0.5596-0.11713-0.3134-0.10249-0.8729-0.23427h-0.2686v-0.11713l-0.3133-0.10249-0.291-0.11714v-0.21962l-0.2686-0.11714-0.3134-0.21962-0.6043-0.45389-0.5596-0.33676-0.3133-0.11713v-0.55638l-0.2686-0.11713v-0.10249l-0.3134-0.11714-0.5596-0.45389-0.6043-0.21962-0.2686-0.23426-0.3134-0.1025-0.5595-0.33675h-0.3134l-0.291-0.11714-0.2685-0.11713h-1.1863l-0.582-0.21963-0.6043-0.11713-0.2686 0.11713-0.6043 0.21963-0.873 0.23427-0.5596 0.33675-0.3133 0.1025-0.3134 0.33675-0.2686 0.11713v0.11714h-0.2909l-0.873 0.21962-0.3133 0.11713h-1.4325l-0.3134-0.11713-0.2686-0.11713-0.3133-0.10249h-0.291l-0.2686-0.11714-0.3134-0.21962v-0.11714l-0.291-0.11712v-0.1025l-0.2685-0.11713v-0.21962l-0.3134-0.11714h-0.6043v0.11714h-0.5596l-0.3134-0.11714-0.2686-0.11713h-0.3133l-0.291-0.10249-0.2686-0.23427v-0.10249h-0.3133v-0.23426l-0.5596-0.55639v-0.21962l-0.3134-0.23426-0.5595-0.33676-0.3134-0.21963v-0.23426l-0.291-0.21963v-0.11713l-0.2686-0.21962-0.6267-0.33676v-0.21962h-0.2462v-0.11714h-0.3134v-0.11713h-0.5819v-0.21962l-0.291-0.11713v-0.21963l-0.3134-0.90778-0.2686-0.21962v-0.21963l0.2686-0.11713v-0.21963l-0.2686-0.33675-0.2909-0.11713-0.3134-0.33676-0.291-0.21963v-0.23426l-0.2686-0.11714v-0.10248h-0.3133l-0.3134-0.11714-0.2462-0.11713-0.3133-0.10249-0.3134-0.11713-0.2686-0.11714-0.6043-0.33676-0.2686-0.10249v-0.45388l0.2686-0.11714v-0.43925h0.3133v-0.90778l-0.3133-0.21962v-0.57103l-0.2686-0.33675v-0.43925h0.2686v-0.11713h0.3133l0.291-0.21962 0.582-0.11714 0.3133 0.21962h0.2462l0.6267-0.21962v-0.11713l0.2686-0.21963v-0.90777h-0.2686v-0.1025l-0.6267-0.23426v-0.10249h-0.8729v0.10249h-0.8729l-0.2686-0.21963-0.6044-0.11713v-0.10249l-0.2686-0.11714v-0.21962l-0.2909-0.11713-0.3134-0.45389v-0.33676l-0.2686-0.33675h0.2686l-0.2686-0.11713v-0.89315h-0.291l-0.3133-0.11713v-0.10249l-0.2686-0.11713v-0.45389l-0.3134-0.10249-0.2909-0.11714v-0.11713h-0.2686v-0.10249h-0.3134v-0.11713h-0.291l-0.2686-0.11713v-0.21963l-0.3133-0.23427-0.291-0.10249-0.3134-0.11713v-1.347l0.3134-0.11713v-0.79065l-0.3134-0.21962v-0.21962h-0.8729v-0.11714l-0.2686-0.11713v-0.10249h-0.8729v0.21962l-0.3134 0.11714v1.1274l-0.2909 0.21962v0.21963h-1.1416l-0.3133-0.1025v-0.11713h-0.291v-0.11713l-0.2686-0.10249v-0.90778h-0.3134l-0.5595 0.11713h-0.3134v0.21963l-0.582-0.11714h-0.2909l-0.3134-0.10249v-1.1274l0.3134-0.33676 0.2909-0.21962 0.2686-0.33676h0.3134v-0.11713l0.3134 0.11713 0.2462 0.10249h0.6267l0.2686 0.11714 0.291 0.11713h0.5819v-0.11713h0.291v-0.21963l0.3134-0.57102v-0.33676l0.2686-0.21962v-0.11714l0.2909-0.11713 0.3134-0.21962h0.2686l0.291 0.11713v0.10249h0.3133l0.2686 0.45389 0.3134 0.21962 0.291 0.23427 0.2685 0.11713h0.3134l0.8729 0.10249h0.6044v-1.347l-0.6044-0.4539v-0.43924l-0.2686-0.33676v-0.45389l0.2686-0.33676v-0.23426l0.291-0.33676 0.3134-0.10249v-0.23426l0.2686-0.1025v-0.11713h0.8729v0.11713h0.3133v0.43925l0.291 0.33676v0.23426l0.2686 0.11714v1.7863h0.6043l0.582 0.11714h0.291l0.2686 0.11713h0.3133v-0.11713h0.5596l0.3134-0.21963 0.3133-0.11713h0.2462l0.6267-0.11714 0.2686-0.10248h0.291l0.6043 0.10248h0.873l0.2686 0.11714h0.8729l0.3134 0.11713 0.5819-0.23427 0.6044-0.10248 0.5595-0.23427v-0.21962l-0.2909-0.4539h-0.2686l-0.3134-0.33675v-0.21963l-0.291-0.67351 0.291-0.45389 0.3134-0.11713 0.5595-0.33676 0.3134-0.21963 0.5596-0.21962-0.291-0.23426 0.291-0.21963v-0.21962l0.3133-0.23427v-0.11713l0.2686-0.43925h0.6043l0.2686-0.11713 0.3134 0.67351h0.8729l0.6044-0.11713h0.2685l0.291-0.10249 0.3134-0.11713v-0.45389h0.5596l0.3133-0.1025-0.3133-0.23426v-0.77601l-0.291-0.23426v0.11713l-0.2686 0.11713v0.33676h-0.3134l-0.291 0.1025-0.2685 0.11712-0.3134 0.21963-0.291-0.21963v-0.11712l-0.3133-0.21963v-0.45389l-0.2686-0.33676v-0.67351l-0.291-0.33676v-0.79065l0.291-0.33675h0.2686l0.9177-0.1025v-0.45388l-0.3134-0.57103v-0.43924l-0.291-0.33676-0.3133-0.11713v-0.11714l0.3133-0.21962 0.291-0.11714v-0.10249l0.3134-0.23426 0.2685-0.21962 0.291-0.11714v-0.21962l0.3134-0.21963-0.3134-0.23426-0.291-0.21962-0.2685-0.23427v-0.10249l0.2685-0.23427v-0.21962l0.291-0.21962 0.3134-0.33676 0.5596-0.23427v-0.21962l0.3133-0.21963 0.582-0.23427 0.2909-0.10248v-0.11714l0.2686-0.23426v-0.33676l0.3134-0.33676v-0.43924l0.291-0.11714v-0.67351l0.2686-0.45389 0.3133-0.21963v-0.23426l0.291-0.10249 0.2686-0.11714 0.3134-0.21962 0.2909-0.23426 0.2686-0.21963 0.3134-0.11713v-0.43925l0.3133-0.23426h0.2463v-0.1025h0.8953v-0.11713l0.6043-0.11713 0.291-0.21963 0.2686-0.11713v-0.33676l-0.2686-0.21962v-0.11713l0.2686-0.11714v-1.1128l0.3133-0.33676v-0.23426l0.291-0.21963 0.2686-0.21962 0.6267-0.3514-0.3133-0.10249v-0.11713l-0.3134-0.11714v-0.43924l0.3134-0.11714h0.8729v-0.11713l0.3134-0.10249v-0.11713l0.2685-0.33676v-0.21963h0.291v-0.11713h0.3134l0.2686 0.11713 0.2909 0.33676v0.43925h-0.2909l-0.2686 0.11713v0.21963l0.2686 0.23426h0.2909l0.3134 0.10249 0.5596 0.23427 0.5819 0.10249v-0.10249l0.6044-0.23427 0.2686-0.10249 0.3133-0.23426 0.291-0.21963 0.5819-0.33675v-0.11714l0.291-0.10249v-0.23426l0.3134-0.33676 0.2686-0.33676 0.291-0.21962v-0.11714l0.3133-0.10249v-0.11713l0.2686-0.23427 0.291-0.33675 0.3133-0.10249 0.2686-0.33676v-0.11713h0.3134v-0.11714l0.291-0.10248v-0.11714h0.2686v-0.11714h0.3133v-0.21962l0.291-0.21962v-0.45389l0.2686-0.21962v-0.68816l-0.2686-0.21963v-0.45388l-0.291-0.21963v-0.55638l0.291-0.23427 0.2686-0.10248v-0.11714l0.3134-0.21962 0.2909 0.10249 0.2686-0.10249v-0.23427l0.3134-0.21962v-0.11714l0.291-0.21962 0.2686-0.45389 0.3133-0.21962v-0.57102l-0.3133-0.21962v-0.33676l0.3133-0.11714v-0.55638l-0.3133-0.45389v-0.11713l-0.2686-0.21962v-0.11714h-0.291v-0.33676l0.291-0.10249v-0.45389l-0.291-0.11714v-0.43925l-0.3134-0.3514v-0.10249l0.3134-0.23426 0.291-0.10249v-0.11714l-0.291-0.11713v-0.10249h-1.4549v-0.33676l-0.291-0.11713v-1.1274l0.291-0.10249v-0.11714l0.2686-0.45389-0.2686-0.11714v-0.10249l-0.291-0.11714v-0.21962l-0.3133-0.23426v-0.33676l-0.2686-0.10249-0.291-0.11714h-0.3134v-0.33676l-0.2686-0.45389-0.3133-0.21962v-0.57102h-0.291l-0.2686-0.10249-0.8729-0.11714-0.3134 0.11714-0.291 0.10249h-0.5819l-0.291-0.10249-0.3133-0.11714-0.2686-0.33676v-0.55638h-0.6044v-0.11714h-0.2686v-0.11714l-0.3133-0.33675-0.291-0.33676v-0.10249l-0.2686-0.11714v-0.67351l-0.3134-0.33676v-0.33676h-0.2909l-0.2686-0.11713-0.3134-0.21962-0.291-0.11714-0.2685-0.11714-0.3134-0.21962-0.3134-0.11713-0.8729-0.21962-0.2686-0.21962-0.6043-0.11714v0.11714h-0.2686l-0.291-0.11714-0.3133-0.11714-0.291-0.21962v-0.33675l0.291-0.57102v-0.10249h0.3133v-0.45389l-0.3133-0.11714v-0.10249l-0.291-0.23426-0.582-0.21962-0.3133-0.11714h-0.5596l-1.4549-0.10249v-0.11714l-0.6043-0.21962-0.2686-0.11714v-0.11713h-0.291v-0.11714l-0.3134-0.21962v-0.11714l-0.2686-0.21962-0.2909-0.11713v-0.21962l-0.3134-0.21962v-0.33676l-0.2686-0.23426v-0.33676l-0.3133-0.21962-0.291-0.33676-0.2686-0.33675h-0.3134v-0.23427l-0.5595-0.21962-0.3134-0.21962h-0.8729v0.10249h-0.6044l-0.2686 0.11713v-0.11713l-0.6043-0.10249-0.2686-0.23426-0.3133-0.10249-0.291-0.11713v-0.21962l-0.2686-0.11714v-0.11713l-0.6043-0.21962-0.2686-0.11714-0.6044-0.1025v-0.11713h-0.2686l-0.3133-0.11714v-0.21962h-0.3134v-1.4642l0.3134-0.11714-0.3134-0.33675v-0.33676l-0.2462-0.10249v-0.33675l-0.3134-0.11714 0.3134-0.57102v-0.776l-0.3134-0.33675v-0.11714l-0.3133-0.21962v-0.33676l0.3133-0.23426v-0.21962l-0.3133-0.33676v-0.67351l-0.2686-0.33676v-0.33675l-0.291-0.11714-0.3134-0.21962v-0.11714l-0.2686-0.11713v-0.21962l-0.6043-0.33676v-0.33676l-0.291-0.11713v-0.67352l-0.2686-0.11713v-0.21962h-0.3133l-0.3134-0.21962v-0.11714l-0.5595-0.21962v-0.23426h-0.3134v-1.0103l-0.2686-0.11714v-0.43925l-0.6043-0.11714v-0.11713l0.3133-0.10249v-0.23426l0.291-0.10249v-0.11714h0.2686v-0.11714l0.3134-0.10249 0.3133-0.11714v-0.33675l-0.3133-0.11714v-0.1025h-0.3134l-0.2686 0.1025h-0.291l-0.5819-0.21962-0.291-0.11714v-0.45389l-0.3134-0.10249v-0.11714l-0.2686-0.21962-0.2909-0.11714-0.3134-0.21962-0.2686-0.23426-0.8729-0.55638-0.8729-0.67351-0.3134-0.11714v-0.33675l-0.291-0.11714v-0.55638l-0.2686-0.11713v-0.1025l-0.6043-0.23426-0.3134-0.10249v-0.23426l-0.2685-0.10249v-0.33676l0.2685-0.33676v-0.45389l-0.2685-0.33676v-0.11713l-0.291-0.11714-0.3134-0.10249-0.5819-0.23426v-0.10249h-0.291v-2.0352l-0.2686-0.10249v-0.33675l-0.3134-0.11714-0.2909-0.21962v-0.11714l-0.2686-0.11713v-0.10249l0.2686-0.11713v-0.21962h0.2909v-1.2445l-0.2909-0.11713v-0.1025l-0.2686-0.11713-0.3134-0.21962v-0.23427l-0.291-0.10249 0.291-0.11714v-0.89314l-0.291-0.11714v-0.90778l0.291-0.10249h0.3134v-0.23426l0.2686-0.21962v-0.33676l-0.2686-0.11713v-0.33676l0.2686-0.10249v-0.23427l0.2909-0.10249h0.3134l0.2686-0.11714 0.291-0.11713 0.5819-0.10249 0.6044-0.11713 0.2685-0.11714 0.3134-0.10249h0.291l0.3133-0.23426v-0.33675l-0.3133-0.4539v-0.21962l0.3133-0.33675 0.2686-0.45389v-0.21962l0.291-0.21962v-0.79065l-0.291-0.33676-0.2686-0.23426v-0.89314l0.2686-0.21962v-0.79065l0.291-0.11714v-0.33675l0.3134-0.11714v-0.10249l0.2686-0.11713 0.2909-0.11714-0.2909-0.21962v-0.21962l-0.2686-0.33676v-0.23426l0.2686-0.10249v-0.11714l0.2909-0.11713v-0.55638h-0.2909v-0.11714h-0.2686v-0.33676h0.2686v-0.11713h0.2909v-0.55638l-0.2909-0.21962 0.2909-0.45389v-0.11714l0.3134-0.21962 0.2686-0.21962v-1.0249l0.3133-0.10249v-0.23426l-0.3133-0.33676v-0.10249l0.3133-0.11714v-0.11713h0.291l0.2686-0.10249 0.3134-0.23426v-0.77601l-0.3134-0.11713v-0.33676l-0.2686-0.23426v-0.67352h0.2686l0.3134-0.21962 0.2909-0.11713-0.2909-0.21962v-0.89314l-0.3134-0.45389v-0.11714l-0.2686-0.11713-0.291-0.10249v-0.45389l-0.3133-0.11714h-0.2686v0.11714h-0.3134l-0.2909-0.11714h-0.2686l-0.3134 0.11714h-0.291l-0.2686 0.11714h-1.1862v0.10249l-0.291-0.10249v0.10249l-0.3134-0.10249h-0.2686l-0.3133 0.10249v-0.10249h-0.5596v-0.11714l-0.3134 0.11714h-0.2909v-0.11714h-0.873l-0.2686 0.11714v-0.11714h-0.6043v-0.11714h-1.4549v-0.10249h-0.3134v0.10249h-0.2686l-0.2909-0.10249-0.3134-0.11714v-0.11713l-0.2686-0.10249-0.291-0.11713v-0.11714h-0.3133v-0.10249l-0.291-0.11714h-0.2686v-0.11714h-1.4996v-0.10249h-0.2686v-0.11714h-0.291v-0.11713h-0.3134v-0.10249l-0.2685-0.11713v-0.11714h-0.6044v-0.10249h-0.2686l-0.2909-0.11713h-0.3134l-0.2686 0.11713h-0.8729l-0.3134 0.10249h-2.0368l-2.6412-1.9034-1.7459-1.3617-0.8729-0.776-0.3134-0.23426-0.8729-0.67352-0.5595-0.89314-1.4773-1.1274-0.2686-0.21962-0.3134-0.11714-1.4548-1.1274-0.291-0.33676-2.0592-1.0103-1.1416-0.55638-0.3133-0.11713-0.291-0.11714-0.2686-0.10249-0.8729-0.33676-1.1863-0.45389-0.291-0.11714-1.1863-0.11713-0.8729-0.10249-2.0145-0.23426-0.8729-0.10249-1.4996-0.23426-1.7459-0.21962-0.8729-0.11714h-0.582l-1.4772-0.10249-1.1416-0.11714-0.6043-0.11713 0.6043-1.1128 0.873-0.3514 0.8729-0.21962 0.2686-0.11713 0.3133-0.21962 0.291-0.11714 0.2686-0.43925 0.3134-0.67351v-0.11714l0.3133-0.33676v-0.21962l0.2462-0.57102v-0.89314l0.3134-0.45389v-0.45389l-0.3134-0.33675-0.2462-0.67352-0.6267-1.0103v-3.2651l0.3134-0.43925v-0.79065l0.3133-1.5813-0.8953-0.21962-0.6043-0.11714-0.5596 0.11714-0.8729 0.21962-0.8729-0.21962-1.4549-0.33676h-0.3134l-0.5595-0.11714-0.3134-0.10249-0.6043-0.23426-0.2686-0.10249-0.6044-0.11713-0.2686-0.11714h-0.3133l-0.291-0.11713-0.2686-0.10249-1.4773-0.57102-0.8729-0.33676v-0.10249l-0.582-0.11714-0.8729-0.21962-0.5819-0.23426-2.0369-0.67351-0.8729-0.21962-0.3134-0.11714-0.3133-0.21962-0.5596-0.33676-0.5819-0.23426-0.291-0.33676-0.3134-0.10249-0.5595-0.11714-1.7683-0.45389-0.8729-0.21962-0.5596-0.11714-0.3133-0.21962-1.164-0.33675-0.5819-0.23427-0.6043-0.21962-0.2686-0.33675-0.3134-0.11714v-0.10249h-0.291l-1.1415-0.11714-0.3133-0.11714h-2.0593l-0.2686-0.33675-0.2909-0.43925-0.6044-0.45389-0.2686-0.33675-0.3133-0.33676 0.5819-0.33676h0.291v-2.9283l-0.291-0.67352 0.291-0.79065 0.6043-1.347 0.2686-0.45389 0.3134-0.55638 0.3134-0.45389 0.5595-0.21962 0.582-0.11714 0.8729-0.10249 1.1639-0.23426 0.3134-0.67352v-0.67351l0.2686-0.89314 0.2909-0.79065v-1.0103l0.3134-0.45389 0.2686-1.6838v-0.33676l0.6043-0.33675 0.873-0.45389 0.5819-0.33675 0.291 0.11713 0.3133 0.10249 0.2686-0.10249-0.5819-0.33675 0.3133-0.23427 0.2686-0.33675 0.291-0.45389 0.3134-0.33675 0.2686-0.21962 0.3133-0.55638 0.291-0.33676 0.2686-1.3617v-0.776l1.4773 0.21963v-0.45389l-0.291-1.0103 0.5596-0.33675 0.3133-0.10249 0.291-0.23426v-0.11714l0.2686-0.10249 0.3133-0.33676 0.3134-0.11713 0.2462-0.21963 0.6267-0.23426v-0.43925l-0.3133-0.23426v-0.21962l0.3133-0.21962 0.2686-0.23426v-0.10249l0.291-0.11714v-0.11713l0.3134-0.33676 0.2909-0.21962v-0.11714l0.2686-0.33675v-0.45389l0.3134-0.33676v-0.67352l0.291-0.21962v-0.67351l0.5819-0.45389 1.4549-1.347 0.291-0.79065 0.3133-0.21962-0.8729-0.57102-0.3134-0.43925-0.5595-0.57102-0.8953-0.10249-0.291-0.67352v-0.57102l-0.3134-0.67351-0.2686-0.21962-1.1639-0.45389-0.6267-0.21963-0.2462-0.23426-0.6267-0.10249-0.5596-0.23426v-0.10249l0.291-0.11713 0.2686-1.0103v-0.33676l-0.2686-0.33676v-0.67351l-0.291-0.23426v-0.45389l0.291-0.33675v-0.10249l-0.291-0.23426-0.3133-0.33676-0.5596-0.33675v-0.67352l-0.3134-0.33675v-0.45389l-0.2686-0.10249-0.2909-0.11714v-0.21962l0.2909-0.57102v-0.10249l0.2686-0.23426-0.5595-0.10249h-0.3134l-0.5596-0.23426-0.3133-0.10249v-1.3617l0.3133-0.1025v-0.11713l-0.3133-0.11714v-0.10249l-0.2686-0.23426-0.6044-0.33675h-0.2686l-0.3133 0.11713h-0.8729l-0.291-0.11713-0.3134 0.11713-0.2686 0.11714-0.8729 0.10249h-0.6043l-0.873-0.10249-0.5819-0.11714-0.291-0.11713-0.8729-0.21962-0.582 0.11713-0.5595 0.10249h-0.8954l-1.1639 0.33675-0.6043-0.43925h-1.4549l-0.8729 0.21962h-0.3134v0.11714l-0.5595 0.10249v0.11714h-0.3134l-0.2686 0.11713-0.6043 0.21963-0.873 0.11713h-0.5819l-0.291-0.11713-0.8729 0.11713-1.7459 0.1025-0.3133 0.45389-0.873 0.90778h-0.8729l-0.2686 0.21963-0.8729-0.67352-0.3134-0.11713-0.2909 0.23426-0.582-0.23426-0.3134-0.4539-0.2462-0.21962-0.3133-0.21962v-0.11713l-0.3134-0.21963-0.2686-0.33675h-0.6043v-0.79065l-1.1639-0.55638-0.2686-0.3514-0.6267-0.43925h-0.873v-0.23426l-0.5595-0.21962-0.3134-0.11714-0.2686-0.10249-0.6043-0.33676-0.5596-0.33676v-0.33675l-0.3134 0.10249-0.5595-0.10249v-0.11714l-0.3134-0.11713-0.2686-0.21963h-0.3133l-0.291-0.11713-0.2686-0.11714h-0.3134l-0.2909-0.10249h-1.4549l-0.873-0.23426h-0.3133l-0.291 0.11713h-0.5819l-0.291-0.11713-0.2686-0.10249h-0.3134l-0.291 0.10249v-0.10249h-0.8729l-0.2686 0.43925-0.3133-0.10249h-0.873l-0.3133 0.10249h-0.2686l-0.291-0.10249v0.21962h-0.8729l-0.6044 0.45389h-0.8953l-0.8729 0.11714h-0.5596l-0.5819-0.33676-0.291-0.11714-0.8729-0.23426h-0.3134l-0.2686-0.21962-0.291-0.11713-0.3133 0.11713h-0.8729v-0.11713l-0.2686-0.10249-0.9177-0.33676-0.873-0.11713-0.2686-0.21962-0.2909-0.11714-0.8954-0.33676-1.7458-0.55638-0.5596-0.11714h-0.6043l-0.2686 0.11714h-1.7682l-0.291-0.11714h-0.3134l-0.2909-0.11714h-0.2686v-0.10249h-0.873l-0.3133-0.11714h-0.5596l-0.3134 0.11714h-0.3133l-0.5596 0.10249-0.3134 0.11714-0.8729 0.11714-0.2686 0.10249-0.6043-0.10249-0.2686-0.11714-0.291-0.33676-0.5819-0.11713-0.873-0.10249-0.3133 0.21962-0.6044 0.11714-0.5595 0.21962-0.3134-0.11714-0.2686-0.10249-0.6043-0.23426v-0.45389l-0.582-0.10249-0.5595-0.23426h-0.3134l-0.291-0.10249-0.2686-0.33675v-0.23427h-0.3133v-0.10249h-0.291l-0.2686-0.23426h-0.3134l-0.8729-0.21962h-1.1863l-0.2686 0.11713h-0.291v-0.11713l-0.3133-0.11714v-0.10249h-0.291l-0.5819 0.10249h-0.291v0.11714l-0.2686 0.11713-0.3134 0.10249v0.23426h-0.3133v0.10249h-2.0145l-0.6043 0.11714-0.2686 0.11714-0.291 0.10249-0.5819 0.11714-0.291 0.21962v0.57102l-0.3134 0.11713h-0.2686v0.77601l-0.3133 0.11714-0.291 0.21962v-0.33676l-0.2686-0.10249h-0.3133l-0.291-0.23427-0.873-0.33675-0.5819-0.33676-0.291-0.11713v-0.10249h-0.3133v-0.11714l-0.582-0.21962-0.291-0.11713-0.5819-0.21962-0.291-0.11714v-0.11714l-0.2686-0.10249-0.3134-0.23426v-0.10249l-0.2909-0.11713v-0.11714l-0.2686-0.10249h-0.3134v-0.11714l-0.291-0.11714v-0.21962l-0.2686-0.11713v-0.10249h-0.3133v-0.11713h-0.3134v-0.23427h-0.2462l-0.3134-0.10249v-0.33676h-0.3133v-0.11713l-0.2686-0.11714v-0.10249h-0.291v-0.57102h-0.3133v-0.10249l0.3133-0.11713h-0.3133v-0.11714h-0.5596v0.11714h-0.6043l-0.2686 0.11713-0.3134-0.11713h-1.1863v-0.11714l-0.2686-0.10249h-0.2909v-0.45389l-0.3134-0.11713v-0.21962l0.3134-0.11714v-0.79065l-0.3134-0.10249-0.2686-0.11714-0.291-0.11714h-0.8729v0.11714l-0.3134 0.11714-0.2686-0.11714v0.21962h-0.2909v-0.10249h-0.8954v-0.11714h-0.2909v-0.11714h-1.4549v0.11714h-0.291v-0.11714h-0.5819v-0.10249h-0.291l-0.3134 0.10249h-0.2686v0.11714h-0.3133l-0.291 0.11714v0.21962h-0.2686v-0.11714h-0.3134v-0.21962h0.3134v-0.11714h-0.3134v-0.33675l-0.2909-0.10249v-0.11713l-0.2686-0.11714v-0.33676h-0.3134v-0.10249h-0.291v-0.33676h-0.5819v0.10249l-0.291 0.11713v0.11714l-0.2686 0.10249h-0.6267l-0.2462 0.11714v-0.11714l-0.3134 0.11714h-0.3133v0.11714h-0.2686v0.43925l-0.291 0.11713v0.11714l-0.6043 0.21962-0.2686 0.11714v0.10249h-0.3134l-0.291-0.10249h-0.2686v-0.11714l-0.3133-0.11714-0.3134-0.21962v-0.11713h-0.2462v0.11713h-0.3134v-0.11713h-0.3133v-0.33676h-1.7459v-0.21962h-0.2686l-0.2909-0.11714-0.3134 0.11714v-0.21962h-0.2686l-0.291-0.11714v0.11714h-0.3133v-0.23426l-0.2686-0.10249v-0.23426h-0.3134l-0.291-0.11714v-0.21962l-0.2685-0.11713v-0.55638l0.2685-0.11714v-0.43925l-0.2685-0.23426v-0.10249h0.2685v-0.11713h0.291l-0.291-0.11714-0.2685-0.10249v-0.57102h-0.3134v-0.11714l-0.291-0.10249-0.3134-0.23426-0.2685-0.10249h-0.291l-0.3134-0.11713-0.2686-0.11714-0.2909-0.10249h-0.3134l-0.2686-0.11713h-0.3134l-0.2909-0.11714h-0.2686v-0.43925h0.2686v-0.33676l-0.2686-0.23426v-0.10249h-0.6044v0.10249h-0.2686v0.23426l-0.3133 0.10249v0.11714l-0.291 0.11713h-0.2686l-0.3133 0.10249h-0.5596v0.11713l-0.3134 0.21962v0.11714h-0.3133l-0.2463 0.11713-0.6267 0.21963v0.11713h-1.1639l-0.2686-0.33676-0.3133-0.11713-0.291-0.33676-0.2686-0.11713v-0.10249h-1.4996v0.10249l-0.2686 0.11713-0.291 0.11714v0.43925l-0.3134 0.23426-0.2686 0.43925v0.11714l-0.2909 0.11714v0.11713h-0.3134l-0.5596 0.10249h-0.8729l-0.5819-0.21962v-0.11714h-0.3134l-0.5596-0.21962-0.6043-0.11714h-2.3278v0.11714l-0.3134 0.10249v0.79065h-1.4325l-0.3134 0.11714-0.2909 0.11713v0.21963l-0.2686 0.11713v0.10249h0.2686v0.79065l-0.2686 0.33675-0.3134 0.11714-0.291 0.21962-0.2685 0.11714-0.6268 0.33675v0.11714l-0.2462 0.21962v0.11714l-0.3133 0.10249h-0.582l-0.6043 0.11714-0.291 0.11713h-0.2686l-0.6043 0.10249-0.2686 0.11713h-0.3134l-0.3133 0.11714-0.2462 0.10249-0.3134 0.11714h-0.582v0.11714l-0.2909 0.21962v0.11713l-0.3134 0.33676v0.10249l-0.2686 0.11714v0.11714l-0.6043 0.11713v0.1025l-0.2686 0.23426-0.291 0.10249-0.3134 0.23427-0.2686 0.10249-0.2909 0.11714-0.3134 0.11713-0.2686 0.10249-0.3133 0.11713-0.291 0.21962v0.11714l-0.2686 0.21962v0.11714h-0.3134v0.21962l-0.291 0.57102v0.89314l-0.3133 0.33676v1.2445l-0.2686 0.21962-0.291 0.23426-0.5819 0.33676-0.291 0.10249-0.3134 0.23427h-0.2686v0.10249h-0.8729v-0.10249h-0.3133v-0.11714l-0.5596-0.33676v-0.11713h-0.3134v-0.10249h-0.2909l-0.2686 0.10249-0.3134 0.11713-0.291 0.11714v0.21962l-0.2686 0.55638v0.11713l-0.3133 0.21963-0.3134 0.23426-0.2462 0.21962-0.3134 0.21962-0.3133 0.11713v0.21963l-0.2686 0.11713v0.45389l0.2686 0.45389v0.10249l0.3133 0.23426v0.89314l-0.5819 0.45389v0.10249l-0.291 0.23426v0.45389l0.291 0.21962 0.2686 0.33676v0.33676l0.3133 0.33675v2.5916l0.3134 0.10249v0.11713h0.2462v0.21962l0.3134 0.11714v0.79065l-0.3134 0.10249v0.11714l-0.2462 0.23426v0.67352l-0.3134 0.10249h-0.3133v0.11714h-0.2686l-0.6043-0.11714-0.5596-0.10249-0.3134-0.23427-0.291-0.10249h-0.5819v0.10249h-0.3134v0.11714l-0.8729 0.45389v0.33676l-0.2686 0.21962v0.55638l-0.291 0.23426-0.3133 0.55638v0.23426l-0.2686 0.43925-0.291 0.23426-0.3134 0.21962v0.11714l-0.2686 0.21962v0.11714l-0.2909 0.77601-0.3134 0.23426v0.11713l-0.2686 0.10249-0.291 0.11713h-0.3133l-0.582-0.11713h-0.8729l-0.8729 0.11713h-0.8729l-0.6044 0.11714-0.2686 0.10249-0.6043 0.11714-0.2686 0.11713-0.3134 0.10249h-0.2909l-0.2686 0.11714h-1.4773l-0.582-0.11714-0.3133-0.10249h-0.2462v-0.11713h-1.4997l-0.291 0.11713v0.55638l-0.2686 0.11714v0.10249l-0.3133 0.11714-0.291 0.11714h-2.0368v0.21962h-0.6044l-0.5595 0.11713h-0.582v-0.11713h-0.6043l-0.2686 0.11713-0.291 0.10249-0.3133 0.11713v0.11714l-0.2686 0.21962v-0.33676l-0.3134-0.11713v-0.43925l-0.291-0.23427v-0.77601l-0.2686-0.23426v-0.33675l-0.3133-0.21962v-0.11714l-0.291-0.11713v-0.10249l-0.3134-0.11714v-0.11713l-0.2686-0.10249-0.2909-0.11713-0.3134-0.11714-0.2686-0.10249-0.291-0.11714-0.3133-0.11714-0.2686-0.10249-0.3134-0.11714-0.291-0.11713-0.2686-0.10249-0.3133-0.11713-0.5596-0.33676v-0.11714l-0.3133-0.10249v-0.11714l-0.291-0.11713v-0.10249h-0.2686v-0.11713l-0.3134-0.11714-0.2909-0.11714h-0.2686v-0.10249l-0.3134-0.11714v-0.11713l-0.3134-0.10249v-0.11713l-0.2462-0.11714h-0.3133v-0.55638h-0.3134v-0.11713l-0.8729-0.10249-0.291-0.11713v-0.11714l-0.2686-0.21962v-0.11714l0.2686-0.10249v-1.0249l-0.2686-0.10249v-0.23426l-0.3133-0.10249v-0.11714l-0.291-0.11714h-0.2686l-0.6267-0.21962h-0.2462v-0.11713l-0.3134-0.10249h-0.3133v-0.11713h-0.5596v0.11713h-0.3134v-0.23426h-0.2686v-0.10249l-0.291-0.11713v-0.11714h-0.5819l-0.291-0.10249-0.3133-0.23426-0.2686-0.1025-0.291-0.11713-0.3134-0.11714-0.2686-0.11714v-0.10249h-0.3133v-0.11714l-0.6044-0.33675v-1.0103h-0.2686v-0.21963l-0.6043-0.23426-0.2686-0.21962v-0.11713h-0.291l-0.3133-0.33676-0.2686-0.11714v-0.21962h-0.291v-0.21962l-0.3134-0.11713-0.2685-0.21963v-0.33675l-0.3134-0.33676v-0.11714l-0.291-0.11713v-0.10249l-0.8729-0.33675v-0.11714l-0.2686-0.11713-0.3134-0.21963v-0.11713l-0.2909-0.11714-0.2686-0.10249v-0.11714l-0.6044-0.11713-0.2686-0.33676-0.3133-0.10249v-0.11713l-0.3134-0.33676v-0.11713l-1.7458 0.57102-2.0593 0.67352-2.8873 0.79065-2.0592 0.67351-1.7458 0.55638-4.969 1.5813-0.58196 0.21962-1.7458 0.45389-1.7459 0.67351-2.0592 0.67352-2.3278 0.67351-0.60435 0.21962-0.26858 0.11714-0.31336 0.11713h-0.29097l-0.31336 0.10249-2.0144 0.23426-1.1863 0.10249-0.87293 0.11713h-0.29097l-0.58196 0.11714h-0.87292l-1.1863 0.10249-1.1639 0.23427-1.4549 0.10249-4.3646 0.45389-1.4549 0.11714-0.91769 0.10249-1.4325 0.11714-0.87293 0.11714-0.89532 0.11713h-0.29097l-0.58195 0.55638-1.4325 1.347-1.1863 1.2445-1.1863 0.89314-1.7459 1.5813-0.87293 1.0103-1.1863 1.0103-1.1415 0.89314-0.60434 0.79065-0.87293 0.79065-0.87293 0.67351-0.26859 0.45389-1.1863 1.0103-0.87293 0.67352-0.87292 0.77601-0.60435 0.57102-1.4549 1.4642-0.87293 0.77601-0.29097 0.11713-0.87293 0.33676-2.6412 1.2445-0.29098 0.10249-0.87293 0.33675-1.1415 0.57102-2.0592 0.79065-1.4549 0.55638-0.87293 0.33676-0.60434 0.45389-0.58194 0.43925-0.60435 0.45389-4.9466 3.2651-4.096 2.9283-0.89532 0.55638-1.1415 1.347-1.1639 1.2445-1.1863 1.2299-1.4549 1.347-0.87294 1.0103-0.60433 0.33676-2.8874 3.2651-0.87293 1.0103-1.4773 1.2445-1.1415 1.2299-2.3726 2.5916-1.1863 1.347-0.87293 0.79065-2.3054-0.11714-3.5141-0.11713h-2.3502l-2.0144-0.10249v0.10249h-0.31336l-1.7459 0.79065-1.4773 0.67351-1.1415 0.45389-1.1863 0.67352-0.87292 0.33675-1.1863 0.45389-2.0144 0.89314-1.7906 0.79065-0.2686 0.11714-0.87291 0.33675-1.4773 0.55638 0.87292 1.4642 0.60435 1.1274 0.58194 1.0103 0.29097 0.55638 0.58196 1.0103 0.55958 0.90778 0.60433 1.4642-0.87293 1.0103-0.87294 0.89314-0.87291 1.1274-0.87294 1.0103-0.87293 0.89314-1.4773 0.23427-1.4549 0.21962-1.4773 0.23426-0.58196-0.23426-1.1639-0.21962-2.0368-0.57102-0.60433-0.10249-0.87294-0.11713-0.55955-0.21962-3.5141-0.23427-0.60433 0.67352-1.7459 1.918-0.2686 0.21962-0.87291 0.23427-1.4773 0.21962-1.1415 0.21962-2.9321 0.45389-1.4996 0.11714-2.0145 0.33675-0.87291 0.11714-4.0961 0.67351-1.4549 0.21962-2.3502 0.33676-1.4549 0.21962h-0.60433l-0.58197-0.10249h-0.87293l-0.87291-0.11714-1.1863-0.11713-1.4325-0.21963-2.3726-0.21962-0.87294-0.11713-0.87293-0.11714-2.3278-0.33676-1.1639-0.10249-2.6412-0.33676-1.7458-0.23426h-0.55957l-1.4996 0.23426-3.7603 0.55638-0.29099 0.11714-0.31336 0.10249-1.7458 0.23426-1.7459 0.33676-1.7682 0.21962-1.4325 0.21962-2.6635 0.45389-1.7459 0.21963-0.8953 0.11713-1.4325 0.33676h-0.58194l-2.6636 0.45389-0.2686 0.11714-0.87292-0.11714-0.29099-0.11713h-0.87291l-1.7683-0.33676-2.0368-0.21962-1.4549-0.23426-0.87294-0.10249-0.87291-0.11714-0.31336-0.11713-1.4325-0.67351-1.1863-0.55638-0.58195-0.33676-2.0368-1.0103-0.58195-0.23426-2.6636-1.347-0.2686 0.33676-0.29097 1.1274-0.31336 0.21963-0.87293 0.57102-0.26859 0.33676v0.11714h-0.31336v2.3573l-1.1639 0.33676 0.29097 0.33676v0.21962l0.31336 0.23426 0.2686 0.1025 0.29097 0.23426v0.10249h0.31336v0.23426l0.26859 0.21963 0.31336 0.21962 0.29099 0.35139 0.26858 0.10249 0.31336 0.33676 0.87293 0.33675 0.29098 0.23426 0.58196 0.43925h0.29097l0.26858 0.23426 0.31336 0.21962v0.21962l0.31336 0.11714v0.45389l0.29099 0.67351 0.58195 1.8009v0.45389l0.29097 0.55638v0.67352l0.2686 0.11713v0.10249l0.31336 0.23426v0.21962h0.29097v0.55638l-0.29097 0.11713v1.5813l0.29097 1.6838 0.2686 1.0103v0.55638l0.31336 0.23427v1.1274l-0.31336 0.21962-0.2686 0.21962v2.0205l0.2686 0.79065 0.31336 0.45389 0.29097 0.79065 2.3278 1.1274v0.10249l0.31337 1.5813v1.1274l0.26858 0.67352v0.43925l0.29099 0.90778 0.58194 0.89314v0.45389l0.29099 0.21962 0.58194 0.79065 0.60434 0.55638 0.31336 0.45389v0.33676l0.2686 0.33676 0.60433 0.79065v0.67351l0.2686 0.67351 0.87292 2.1377 0.29099 0.55638 0.58194 0.90778 0.60433 0.79065 0.58196 0.67352 1.7458 1.0103 0.55958 0.45389 0.60433 0.43925 0.58196 0.45389 0.87293 0.55638 0.31336 0.68816 0.87292 1.347 0.29099 0.21963 0.26858 0.21962 1.4997 0.45389 1.1415 0.79065 0.60434 0.33676 0.2686 0.33675 0.60433 0.55638 0.55957 0.45389v0.11714h0.31336v0.10249l0.2686 0.11714v0.55638h1.1863l1.1639 0.90778 0.58196 1.0103v1.0103l-0.2686 1.4642v0.89314l0.87294 1.0249v0.10249l0.2686 0.23426 0.29097 0.10249 0.31336 0.33676h0.26858l0.31336 0.11714 0.55958 1.0103v0.33675l0.31336 0.11714v0.55638l0.55957 0.57102-0.2686 0.10249-1.1639-0.10249-1.1863-0.11714-0.58196-0.11713h-1.1639l-0.58196-0.10249h-1.1863l-0.55957-0.11714-1.7459-0.11713-0.87292-0.10249h-1.4997l-0.2686 1.1128-0.29097 0.90778-0.31336 0.89314-0.26858 0.57102v0.33675l-0.29099 0.43925-0.31336 0.57102-0.26858 0.33675v0.45389l-0.60434 0.89314v0.33676l-0.2686 0.55638-0.29097 0.90778v0.67351l-0.31336 0.21962v0.79065l-0.31336 0.45389-0.2686 1.1274v0.55638l-0.29097 0.55638v0.79065l-0.31336 0.67351v0.67351l-0.55958 0.79065-0.58194 0.67352-0.29097 0.67351-0.58196 0.79065-0.60434 0.67351-0.2686 0.67352-0.87293 1.2445-0.60433 0.55638-0.26859 0.45389-0.31336 0.77601-0.29097 0.45389-0.87293 1.0103v0.11714l-0.2686 0.33676-0.9177 0.45389-1.4549 1.347-0.55957 0.45389-0.87294 0.43925-1.4996 1.0103-0.55956 0.57102-0.58196 0.45389h-0.29097v0.10249h-1.4549l-0.29099 0.11713v0.21963h-0.31336v0.33676l0.31336 0.23426v0.89314l0.29099 0.57102v0.67352l-0.29099 1.1128v0.23427l-0.31336 0.55637v0.11714h-0.31336l-1.7458 0.67351-0.2686 0.21963-0.60433 0.23426-0.87293 0.21963h-0.26859l-0.60433 0.21962-0.2686 0.11713-1.1863 0.55638-0.29098 0.23427-0.2686-0.11713-0.60433-0.21963h-0.26858l-0.9177 0.21963-0.87293 0.33676-1.1415 0.23426-0.31336 0.21962v0.11713l0.31336 0.21963v0.11713l0.2686 0.1025v0.57101l-0.2686 0.21963v0.55638l0.2686 0.11714 0.29097 0.11713v0.21962h-0.29097v1.1274l0.29097 0.11714v1.0103l0.31336 0.10249 0.2686 0.11713v0.21963l0.29097 0.11713v0.23427l0.31336 0.10249v0.23426l0.2686 0.33676v0.43925h0.29098v0.23427h0.31336v0.10249l0.31336 0.11713v0.11713l-0.31336 0.33676v0.33676l-0.31336 0.10249 0.31336 0.23426v0.11714h-0.31336v0.776l0.31336 0.11713v0.33676l0.31336 0.11714v0.21962l0.26858 0.33675v0.67352l0.29097 0.11713-0.29097 0.33676v0.55638h-0.26858v0.33675l-0.31336 0.11714v0.33676l-0.31336 0.11713v0.67351l1.1863 1.0103 1.7459 1.4642 2.0592 1.8009-0.29099 1.0103-0.89531 1.8009 1.1863 1.1128 0.87291 0.79065 0.58196 0.90778 1.4325 1.347 0.91771 0.89313 2.3278 2.3573v0.3514l0.29097 0.43925 1.1415 1.8009 0.62672 0.67351 0.55957 1.0103 3.5141 5.5199 0.60433 0.33676 1.7458 1.0103 0.55957 0.21962 1.1863 0.67351 1.4549 0.57103 2.3502 1.1128 0.87294 0.57102 1.1415 0.67352 2.0592 1.347 1.1863 0.67351 1.1415 0.67351 0.60433 0.57102 0.55957 0.33676 0.31336 0.43925 0.58195 0.79065 0.87293 0.79064 0.60433 0.33676 0.87294 1.0103 0.87293 0.79065v2.8112l-0.31336 0.89313v0.33676l1.1863 0.33676 0.26859-0.21963 0.31336-0.11713 0.29097 0.11713 1.1415-0.33675 0.60434-0.21963 0.58194-0.11713 0.87293-0.11713 0.60434-0.10249 0.87293 0.33675 0.2686 0.10249h0.31336l0.55957 0.11714 1.4996 0.21962h1.1415l0.29098 0.11713 0.87294-0.11713 0.87291-0.10249h0.89533v0.10249l0.29097-0.10249 0.31336 0.10249h0.2686v0.11713l0.60433 0.11714v0.43924h0.26858l1.7459-0.21962h0.60433l0.58196-0.11713 0.87292-0.10249h3.8051l0.55957 0.10249 0.60433 0.11713 0.89532 0.11713h0.55958l0.58194 0.10249h1.7459v1.3617l0.29097 0.21963v0.21962l0.31336 0.23427v0.89314l-0.31336 0.21962-0.29097 0.23426v0.1025l0.29097 0.11713-0.29097 0.21962v0.57103l0.29097 0.11713v0.33675l0.31336 0.1025v0.11713l0.2686 0.11713v0.1025l0.60433 0.23426 0.31336 0.33676v0.33675l0.26859 0.1025v0.33675l0.60433 0.23427v0.11713l0.2686 0.10249v0.11713l0.29097 0.11714v0.10249l0.58196 0.33676v0.11713l0.29097 0.11713 0.31336 0.10249 0.2686 0.23427h0.29098l0.31336 0.21962 0.26858 0.11714 0.87293 0.43925v0.11712l-0.26858 0.33676v0.67351l-0.29099 0.11712v0.21964h-0.31336v0.11712l-0.58194 0.21965-0.55958 0.33676-1.4773 0.79065v0.11712l-0.58196 0.10247v0.35141h-0.29097l-0.89531 0.10253-0.87293 0.23424h-0.55957l-0.31337-0.11712h-0.55957v0.11712l0.2686 1.1128v0.571l0.29097 0.21965h-0.55957l-0.31336 0.11711h-0.29097l-0.26858 0.10253h-0.62673l-0.24621 0.11712v0.11712l-0.31336 0.11712h-0.31336v0.10253l-0.2686 0.11711-0.29097 0.33677v0.45388l-0.31336 0.10247h-1.1415l-0.29097-0.10247h-1.1863l-0.58196 0.10247-0.29098 0.11718v0.21959l-0.31336 0.11711-0.26858 0.11718-0.29099 0.21959h-0.31336l-0.87292 0.11718-0.55957 0.10247v-0.10247l-0.89532 0.55635-0.29097 0.571-0.2686 0.10253-0.60434 1.0102v0.2343l-0.26858 0.21964-0.87293 0.55636-0.87293 0.68817-0.31337 0.21959-0.60433 0.55641-0.58194 0.45389-0.29099 0.45388-0.58195 0.55635v0.33677l-0.29098 0.11717v0.21959l-0.26859 0.11712v0.21965l-0.87293 0.67352-0.31336 0.45389-0.87293 1.1274-0.58195 0.33676-0.29097 0.55636h0.29097l-1.1639 1.1274-0.87294 0.90776-0.87293 0.776-0.31336 0.57106h-0.31336l-0.26858 0.33677-0.60434 0.55635 1.1863 0.11712 0.60435 0.10253 0.87292 0.11711 0.87293 0.23424h0.58196l0.55957 0.10253 1.7682 0.23423 0.29097 0.10253 0.87293 0.23424 0.58195 0.21965 0.29099 0.11711 0.31334 0.10247 0.55957 0.2343h0.62673l0.2686-0.11712 0.29097-0.21965v-0.11711l0.58196-0.11712 0.87291 0.23423 0.29099 0.10247h0.31335l0.55957 0.2343 0.89532 0.10247 0.87293 0.23429 1.1639 0.21959 0.58194 0.11718h0.87294v0.10247l0.60433 0.11712 0.58196 0.21964v-0.10247h2.6188l0.31336 0.21959v0.33677l0.24621 0.45388h1.7682l0.29097 0.21964h0.31337v0.11712l0.2686 0.21965 0.60433-0.10253 0.55957 0.10253h0.89531v0.11712l0.60433 0.33676 0.2686 0.21959 1.7459 0.23429v0.33677l-0.2686 0.21959v0.11717l-0.31336 0.11712v0.33677h-0.29097v0.10247l0.29097 0.11711v0.33677l-0.29097 0.33676v0.33677l0.29097 0.21965v0.3367h2.0592l1.4549-0.10247h0.87293l0.87292-0.11712 0.60435-0.11711v0.11711l1.7458-0.11711 1.1415-0.10253 0.6267-0.11712h0.24621l1.1863-0.11712h4.9914l0.55957 0.11712-0.29099 0.33676v0.11712l2.3502-0.11712 1.7459-0.11711v0.11711h1.7682l0.87294-0.11711h1.1639l0.58195-0.67353 0.29097-0.43924 0.2686-0.33676 0.31336-0.2343 0.31336-0.33676 0.24621-0.33671 1.4996 0.33671 1.1415 0.23429v0.10247l1.4773 0.11712 1.4549 0.11718h0.87293l0.29097 0.33676 0.58196 1.2299v1.0102l0.29097 0.67353v2.2548l-0.29097 0.33677-0.2686 0.21958v0.11718l-0.60433 0.21959-1.1415 0.45388-1.1863 0.45394-0.31336 0.21959v0.11712l-0.24621 0.21965v0.11711l-0.31336 0.10253-0.31337 0.35136v0.43929l-0.29097 0.33671v1.4642l-0.2686 0.57106v1.4495l0.2686 0.33677 0.60434 0.23429 0.31336 0.33676 0.55957 0.21959v0.45389h-0.55957v0.55641l-0.31336 0.33676v1.4641l0.31336 0.33676v0.67353l0.24621 0.2343v0.21959l-0.24621 0.21964v0.33677l-0.31336 0.23423v0.21965l-0.60434 0.33676v0.11712l-0.2686 0.11712v0.10253l-0.31336 0.11712v0.45388l-0.29097 0.21965v0.55635l-0.2686 0.33676v0.33677l-0.31336 0.11712v1.1274l0.31336 0.11712h0.87293l0.55957 0.10247 0.31337 0.11717h0.31336v0.11712l0.55957 0.10247 0.31336 0.11718 0.26858 0.11712 0.29097 0.10247v0.23429l-0.29097 0.10247v1.6984h0.60434v0.10253h1.1415l0.29097 0.11712 0.31336 0.11712h0.55957l0.31336 0.10253 0.26859 0.11711 0.60435 0.11712h0.26858l0.31336 0.10247h0.29097l0.2686 0.11718 0.31336 0.11712h0.29098l0.87293 0.21964h1.1863l0.26859 0.11712h1.1863l0.55957 0.21959 0.31336 0.11718 0.29098 0.10247h0.2686v0.11711h0.31334l0.31336 0.11718v0.11712h0.24621v0.10247h1.7682v-0.21959h0.29099l0.31336-0.11718v-0.11711l0.26858-0.10247v0.21958l0.29099 0.11718 0.31335 0.45388 0.31336 0.21959v1.2299h-0.31336v0.11718h-0.60434v0.11712l-0.26858 0.10247-0.31336 0.11717-0.29099 0.21959-0.26858 0.11712-0.31336 0.45394-0.55958 0.45388-0.31336 0.21959-0.55957 0.33677v0.21964l-0.31336 0.23424v0.33676l-0.31334 0.55642-0.2686 0.33676-0.60434 0.33671v0.33676l-0.55957 0.57106-0.31336 0.33676v0.43924l-0.2686 0.23424-0.29097 0.43929-0.31336 0.35135-0.26859 0.55641v0.33677l-0.29099 0.33676v0.55636l-0.31336 1.4642-0.26858 0.11712v0.79065h-0.0223l-0.29097 1.2299v1.3471l-0.29097 0.67347-0.29099 0.33676v0.33677l-0.29097 0.23429v0.33677l-0.58195 0.45388-0.29099 0.33676-0.29097 0.43924-0.58194 0.33676-0.29099 0.45389v0.45388l-0.29097 0.21959v0.33676l0.29097 0.45388v0.45395l0.29099 0.21958 0.29097 0.45389 0.58194 0.21964v0.21965l0.29099 0.35135 0.29097 0.55642v0.11711l0.29098 0.21965v0.21959l0.29097 0.11717v1.2299l0.29099 0.68811v3.7044l-0.29099 0.21964v0.90777l-0.29097 0.43923-0.58195 0.90777-0.29099 0.45388-0.58194 0.10253v0.11712l-0.58196 0.11712v0.10253l-0.58195 0.23423-0.29097 0.10247h-0.31336l-0.87293 0.2343h-2.0368l-0.29097-0.11712-0.29097-0.11718-0.29099-0.10247-0.58195-0.23423-0.58196-0.21965-0.31336-0.11712-0.29097-0.10253h-2.6188l-0.29099 0.10253-0.29097 0.11712-0.29098 0.11712-0.87293 0.55641v0.11712l-0.29097 0.10247-0.29097 0.33676v0.2343l-0.31336 0.33676v3.2651l0.31336 0.55635 0.29097 0.33677v0.21964l0.29097 0.33677v0.33676l0.29097 0.11712 0.29099 0.23424 0.29097 0.43929v0.45388l0.29098 0.11712v0.55635l0.29097 0.45394v1.0102l-0.29097 0.11712v0.67353l-0.29098 0.10253-0.29097 0.11711-0.29099 0.21959-1.4772 0.57106-0.29099 0.10247h-0.29097v0.11712h-1.7459v-0.11712h-0.29098l-0.58194-0.10247-0.29099-0.11712-0.58194-0.11717h-2.3502l-0.29097-0.10247-0.58196-0.2343-0.29098-0.10247v-0.11712h-0.29097v-0.21964l-0.29097-0.23424v-1.1274l0.29097-0.33677v-1.0103l-0.29097-0.10247-0.29099-0.11712h-0.58194v0.11712h-0.29098v0.10247l-0.29098 0.23429-0.29098 0.33677-0.29097 0.10247-0.31336 0.33676-0.29097 0.45389-0.29099 0.11711v0.33677l-0.58194 0.21965-0.29098 0.23423-0.29099 0.33677v0.10253l-0.29097 0.23423v0.10247l-0.29097 0.57106v1.347l-0.29097 0.45388 0.29097 0.33677v0.43929l0.29097 0.571 0.29097 0.33677 0.29099 0.45388v0.33676l0.58195 0.67347 0.29097 0.4393 0.58196 0.571 0.31336 0.33676 0.58195 0.33677 0.29098 0.21959 0.58195 0.33676 1.4549 0.57106 0.58196 0.33676 0.58194 0.21959v0.11712l0.29099 0.10253v0.23423l0.29097 0.10253v0.33677l0.29097 0.11712v0.23423l0.29098 0.10253v1.1274l-0.29098 0.21959v1.1274h-0.29097l0.29097 0.2343v0.55635l-0.29097 0.45388v0.33677l-0.29097 0.21964-0.29099 0.21959-0.29097 0.2343-0.58195 0.55635-0.58196 0.23429-0.58194 0.21959-0.58196 0.21965-0.29097 0.11712h-0.58196l-0.58195-0.11712h-0.60433l-0.58196-0.10247-0.29097-0.11718h-0.29098v-0.11712l-0.87293-0.21964-0.58196-0.23424-0.29097-0.21965-0.29097-0.11711v-0.10247l-0.58197-0.11718v-0.11712h-0.58194l-0.29099-0.10247h-0.60433v0.10247h-0.29097l-0.29098 0.11712-0.29098 0.11718v0.10247l-0.29098 0.11711v0.67353l0.29098 0.45389 0.29098 0.11711v0.33677l0.29098 0.10253v0.23423l0.29097 0.10253v0.11712l0.31336 0.33677 0.58196 0.67347v0.11717l0.29097 0.21959v1.3471l-0.29097 0.67347v1.3617l0.58194 1.2299v0.21965l0.29098 0.11711v0.11712l0.29099 0.33677v1.5666l-0.29099 0.2343v0.10247l-0.29098 0.11711v0.11718l-0.58194 0.21959v0.11712h-0.29099l-0.29097 0.10253h-0.60433l-0.29098-0.10253-0.58196-0.23424-0.29097-0.10247v-0.11718h-0.29097l-0.29099-0.11711v-0.10247h-0.29097v-0.11718l-0.29097-0.11712-0.29098-0.10247v-0.11712h-0.29098v-0.11717l-0.58195-0.33677-0.29097-0.21959v-0.21964l-0.29099-0.23424-0.29097-0.21964-0.29097-0.33677-0.31336-0.23423-0.58197-0.55642v-0.21958l-0.29097-0.11718v-0.21959l-0.58194-0.79065v-0.33676l-0.29099-0.11712v-0.33676l-0.29097-0.11718-0.29097-0.10247v-0.11712h-1.4549v0.11712l-0.58196 0.10247v0.11718l-0.29097 0.11711v1.347l0.29097 0.11718v0.67347l0.29097 0.21965v0.21965l0.29099 0.23423 0.29097 0.33677 0.29097 0.67352 0.29097 0.21959v0.11718l0.29099 0.79065 0.29098 0.21958v0.33677l-0.29098 0.11712v0.21964l-0.29099 0.11712-0.58194 0.11718v0.10247h-0.29097v-0.10247h-0.87293l-0.29098-0.11718-0.29099-0.11712-0.8953-0.11711-0.29097-0.10253h-0.58196l-0.29098-0.11712h-0.87293l-0.29097-0.11712h-0.29099l-0.29097-0.10247v-0.11718h-0.29097l-0.29098-0.21958-0.87293-0.33677v-0.11712l-0.29097-0.11717v-0.10247l-0.60433-0.33677-0.29099-0.11712h-0.29097l-0.29098-0.11711-0.58196 0.23423-0.29097 0.10247v0.11718l-0.58196 0.45388-0.29097 0.55635v0.11718l-0.29097 0.21959-0.58197 0.33676-0.29097 0.2343-0.29097 0.10247v0.11712l-0.29097 0.11711-0.29099 0.10253v0.11712l-0.31336 0.11712v0.10253l-0.29097 0.11712-0.58195 0.21958-1.1639 0.67353-0.58196 0.11712-0.29098 0.11718h-0.29097v0.10247l-0.87293 0.11712h-0.29097l-0.58196 0.21964h-0.29098v0.11712h-0.31336l-0.29097 0.11712v0.21965l-0.29099 0.11711v0.21965l-0.29097 0.33676-0.29097 0.23424v0.21965l-0.29097 0.33676v0.21959l-0.29099 0.11718-0.29097 0.55635v0.11712l-0.29098 0.11717-0.58196 0.55636v0.23429h-0.29097v0.21959l-0.29097 0.11718-0.29099 0.3367v0.10253l-0.58194 0.45388v0.21965l-0.29098 0.23424v0.10247l-0.29099 0.45394-0.31334 0.67347v0.45388h-0.29099v0.21965l-0.29097 0.571v0.21964l-0.29097 0.21965v0.33671l-0.29099 0.11717v0.23424h-0.29097v0.10253l-0.29098 0.11712-0.29097 0.11711h-0.58196l-0.29097 0.10247h-0.29097l-0.87294 0.11718h-4.096l-0.29099 0.11712h-0.29097l-0.29098 0.10247h-0.29097l-0.58196 0.23429h-0.29097l-0.29097 0.10247h-0.29099v0.11712l-0.31336 0.11718-0.58195 0.10247h-0.29097v0.11712l-1.1639 0.21964-0.87294 0.11712-0.29099 0.11712h-0.29097l-0.29097 0.10253-0.58196 0.11712v0.11711l-0.58195 0.33677-0.8953 0.55641-0.87293 0.45388-0.29099 0.21959-0.58195 0.57106-0.29097 0.10247v0.11712h-0.29099v1.6838l-0.29097 0.23424v0.10253l-0.29097 0.3367v0.2343l-0.29097 0.55635h-0.29099v0.45394l-0.29097 0.45388v0.10247l-0.58195 0.79065v0.33676l-0.29099 0.33677v0.21959h-0.31336v0.68817l0.31336 0.67353v0.33677l0.29099 0.21959v0.45388l0.29097 0.21965v0.33676l0.29098 0.33676v2.1376l0.29097 0.33677v0.45388l0.29099 0.21965v0.11711l0.58194 0.33677v0.11712l0.29097 0.10253h0.29099v0.11711h1.4549l0.29097-0.11711h0.29099v-0.10253l0.29097-0.11712v-0.11712h0.29097v-0.21965l0.60434-0.33676 0.29097-0.571 0.29099-0.43924 0.29097-0.11717v-0.33677l0.29097-0.55635v-0.571l-0.29097-0.21965v-0.45388l0.29097-0.21965v-0.23423l0.29097-0.21965h0.29099v-0.11712l0.29097-0.10247 0.29098-0.11717h0.29099l0.29097-0.11712h1.7458l0.31336 0.11712 0.29099-0.11712h0.29097l1.7458-0.33677 0.87293-0.10247h0.87293l0.87294 0.10247 0.60433 0.11712h0.87293l0.58195 0.11718h0.58196v0.10247l0.29097 0.11712h0.29097l0.29097 0.11717v0.10247h0.29099v0.11712l0.29097 0.11712v0.43929l0.29098 0.23424v0.10247l0.29097 0.35141v0.55641l-0.29097 0.55635-0.29098 0.33677v0.45388l0.29098 0.33677v2.4744l-0.29098 0.11717v0.33677l-0.29097 0.10247v0.23424l-0.29099 0.21964-0.58194 0.33677-0.29097 0.33676-0.29099 0.23424-0.29097 0.10253-0.29098 0.23423-1.1639 0.33677h-0.31336l-0.29097 0.10247h-1.1639l-0.58196-0.10247h-0.29097v-0.11712h-0.29097l-0.29099-0.11718-0.29097-0.10247-0.87294-0.45388-0.29097-0.11712-0.29097-0.10253h-0.29097v-0.11712h-1.4773l-0.29099 0.11712h-0.29097l-0.29097 0.10253-0.29097 0.11712-0.29099 0.11712h-0.29098v0.10253l-0.29097 0.11711v0.11712l-0.29099 0.21965v0.89312l0.29099 0.11711v0.11718l0.29097 0.10247v0.11712l0.87294 0.33676 0.58194 0.2343v0.10247h0.29099l0.29097 0.11712 0.89531 0.21964 0.29099 0.11712 0.58194 0.21965v0.11712h0.29097l1.1639 0.11711h1.4549l0.58195 0.10253h0.58196v0.11712h0.29097l0.31336 0.11712v0.10247l0.29097 0.11717v0.11712h0.29097l0.29099 0.33677 1.1639 0.79064 0.58194 0.43924 0.29097 0.33676 1.1639 1.2445 0.58196 0.67353v0.21959l0.29097 0.33677 0.29099 0.23429v0.10247l0.31334 0.45388v1.1274l-0.31334 0.11712v0.33677l-0.29099 0.10253-0.29097 0.11711v0.11712h-0.29097l-0.29099 0.10247h-0.29097l-0.29098 0.11718v-0.11718h-0.58196l-0.58194-0.21959h-0.29097l-0.58196-0.11711-0.87294-0.21965v-0.11712l-0.29097-0.10253-0.29097-0.11712-0.31336-0.11711-0.29097-0.11712-0.29099-0.21965-0.58195-0.21964-0.87293-0.67348v-0.11717l-0.29097-0.11712v-0.10247l-0.29097-0.23429-0.29099-0.10247v-0.11712l-0.29097-0.11718-0.58195-0.55635-0.29099-0.11712-0.58194-0.33676v-0.11718h-0.29097v-0.10247l-0.60435-0.11712h-0.58195v0.11712l-1.1639 0.10247h-0.29097l-0.29099 0.11718-0.58195 0.11711v0.10247h-0.29099v0.11718l-0.29097 0.33671h-0.29097v0.33676h-0.29097v0.11718l-0.29099 0.45388v0.55635l-0.29097 0.21965 0.29097 0.67353v0.79065l-0.29097 0.11711v0.55636l-0.29098 0.33676-0.31336 0.45388-0.29097 0.21965-0.29097 0.23424v1.0103l0.29097 0.21965 0.29097 0.45388v0.11712l0.31336 0.21964v0.11712l1.1639 0.89312 0.29097 0.23429v0.10247l0.29097 0.2343 0.29099 0.21959v0.55641l-0.29099 0.23423v0.21965l-0.58194 0.33677-0.29097 0.11711v0.10247l-0.29099 0.2343-0.29097 0.21959v0.11717l-0.29098 0.11712h-0.31336v0.10247h-0.29097l-0.58196 0.11718-0.29097 0.11712h-1.7459v0.10247h-2.9321l-1.1639 0.11711-0.58194 0.21965-0.58196 0.11712-0.29097 0.11717h-0.29097v0.10248l-0.58197 0.33676-0.29097 0.11712-0.29097 0.21964-0.58196 0.23424-1.7682 1.0103-0.29097 0.11712v0.10247l-0.29099 0.11718-0.29097 0.11712-0.58195 0.21964h-2.0368l-0.29099-0.11717-0.89531-0.10247-0.29097-0.11712h-0.29099l-0.29097-0.11718-0.29097-0.10247-0.29097-0.11712-0.29099-0.21964-0.29098-0.11712-0.58194-0.33677v-0.23423l-0.58196-0.55641-0.29097-0.11712-0.29097-0.10253h-0.58197l-0.8953 0.10253h-0.58196l-0.29097 0.11712h-0.29098v0.11712l-0.29098 0.10252-0.29098 0.11712v0.11712l-0.29097 0.10253v0.23423l-0.29097 0.10248-0.29099 0.23429v0.21965l-0.58194 0.45388v0.21959l-0.29098 0.11717v0.21959l-0.29098 0.11712v0.11718l-1.1639 0.776-0.31336 0.23423-0.29097 0.33677-0.29097 0.10247-0.29098 0.35141v0.21965l-0.29099 0.11711v1.0103l0.29099 0.21959v0.21964l0.29098 0.33677v0.23423l0.29097 0.33677 0.29097 0.21964 0.31336 0.45389 0.29099 0.11711 0.29097 0.10253 0.29097 0.23424 0.29098 0.10247 0.29098 0.11718h0.58195v0.11711h0.29097l0.29099-0.11711h0.58194l0.29098-0.11718 0.58196-0.10247 0.58194-0.23424 0.29099-0.10253 0.60433-0.23423 0.29097-0.21965 0.29098-0.11712v-0.10253l0.29099-0.23423 0.29097-0.11712v-0.21965l0.29097-0.11711v-0.21965l0.29097-0.11712v-0.10247l0.29099-0.11717v-0.11712l0.29097-0.10247v-0.11718l0.29097-0.11712v-0.10247l0.29098-0.11712h0.29099l0.29097-0.21964 0.29097-0.11712 0.8729-0.21965 0.29097-0.11711h0.29097l0.31336-0.11712h0.58196l0.29098 0.11712h0.87293l0.29097 0.11711v0.10247h0.29097v0.11718h0.29099v0.21959l0.29097 0.11717 0.29098 0.45389 0.58196 0.67347 0.29097 0.33676v0.33677l0.29097 0.55641 0.58196 0.33676v0.23424l0.31336 0.10247v0.23429l0.29098 0.10247 0.58194 0.45389 0.29099 0.11717h0.29097l0.29097-0.11717h0.29097l0.29099-0.11712v-0.10247h0.29098v-0.2343h0.29097l0.29099-0.43923v-0.23424l0.29097-0.21964v-0.21965h0.29097l0.29097-0.571 0.29099-0.33677v-0.21964l0.58195-0.23424v-0.10247h0.29097l0.31336-0.11717h2.0368v-0.11712h0.58196v-0.10247l0.29097-0.2343 0.29097-0.10247 0.29097-0.23429 0.58196-0.33677v-0.21958l0.29098-0.11712 0.29097-0.21965 0.29099-0.11712 0.29097-0.11717h1.1863l0.29098 0.11717 0.58194 0.11712 0.58196 0.21965 0.58194 0.11712 0.29099 0.11711 0.58195 0.10247 0.87293 0.11718h0.29097l0.31336 0.11712h0.29098l0.29098 0.10247 0.29098 0.11717 0.29097 0.11712 0.58196 0.21959v0.11718l0.29097 0.10247 0.87293 0.571 0.58195 0.33676 0.58196 0.21965 0.29097 0.11712h0.87293l0.31337-0.11712 0.29097-0.11712v-0.10253l0.58196-0.11712v-0.11711h0.29097l0.29097-0.21965 0.29097-0.11712 0.29099-0.21964 0.29098-0.21959 0.29097-0.2343h0.29097v-0.10247l0.29099-0.11712h0.29097l0.29097-0.11717 0.29097-0.10247h1.1639l1.4773 0.10247v0.11717h0.29098l0.29098 0.11712h0.29097l0.29097 0.10247 0.87293 0.2343v0.10247h0.29098l0.29098 0.11712 1.4773 0.45388 0.58194 0.21964 0.29098 0.11712h1.7459l0.29097-0.11712 2.0368-0.33676 0.29097-0.11712 0.31337-0.10247 0.29097-0.11717 0.29099-0.11712 0.29097-0.10247v-0.11718l0.58196-0.21959 0.29097-0.45388v-0.11718l0.29097-0.10247v-0.571l0.29098-0.11717v-1.6838l-0.29098-0.55635v-0.21965l-0.29097-0.571-0.29097-0.45388v-1.0103l0.29097-0.10248v-0.11717l0.29097-0.21959v-0.11718l0.29098-0.11711v-0.10247l0.29098-0.11712 0.29098-0.11718 1.1639-0.21959v-0.11717h0.87293l0.89531 0.11717h0.29097l0.29099 0.11712h0.58194v0.10247h0.29098v0.11718l0.29099 0.11712 0.29097 0.10247 0.29097 0.11711 0.29097 0.45394 0.29099 0.10248v0.45388l0.29097 0.11712v0.33676l0.29097 0.67353v0.33676l0.29098 0.21959 0.29099 0.57106v0.21959l0.29097 0.11718v0.21958l0.8953 0.55642 0.29099 0.45388 0.29097 0.21959v0.11717l0.29098 0.571v0.10247l0.29097 0.2343v0.89312l-0.29097 0.33676v0.11712l-0.29098 0.21964-0.29097 0.21965v0.11712l-0.29099 0.23423-0.29097 0.10253-0.31336 0.11712-0.29097 0.21965-0.58196 0.23423h-0.29098l-0.29097 0.10253-0.29097 0.11712h-0.29099l-0.87291 0.21959-0.29099 0.11718-0.87292 0.33676-1.4773 0.55635-0.58196 0.2343-0.58194 0.10241-0.29099 0.11718-0.29097 0.11711-0.58195 0.33677v0.11717l-0.87293 0.77595-1.1639 0.67358-0.29099 0.33671-0.29097 0.11712-0.31337 0.11717-0.29097 0.21959-0.58194 0.33677-0.29099 0.11711-0.29097 0.21965h-0.29097l-0.87294 0.33677-0.29097 0.11711-0.87293 0.21959-0.58196 0.33683-0.58195 0.23423-0.60433 0.43924-0.29099 0.11717-0.29097 0.45383-0.29097 0.45394-0.29098 0.10253-0.29098 0.23423v0.21959l-0.29098 0.21965v0.11712l-0.29097 0.21964h-0.29097v0.23424l-0.58196 0.55641-0.29097 0.11712v0.10247l-0.29098 0.23429-0.31336 0.21965-0.2686 0.11712v0.33676l-0.87293 0.67347v0.33677l-0.29097 0.33682v0.11712l-0.31336 0.3367-0.26859 0.21965v0.33677l-0.29098 0.33676v0.11712h-0.31337v0.45388l-0.31336 0.10247-0.26858 0.11712-0.29097-0.11712h-0.58196l-0.29097-0.10247-0.31337-0.11712-0.2686-0.11712-0.29097-0.10247-0.31336-0.11717v-0.11712l-0.26858-0.21965-0.60435-0.45388-0.26858-0.21965v-0.11711l-0.60434-0.67353v-0.21965l-0.2686-0.11712v-0.11712l-0.31336-0.10247v-0.23429h-0.29097v-0.10247h-0.87293l-0.2686 0.10247v0.11718l-0.31336 0.11711h-0.29098v0.21959h-0.26858v0.21965l-0.31336 0.33676v1.8009l-0.31336 0.571v1.6838l-0.29097 0.33682-0.2686 0.21959v0.11712l-0.31336 0.21959v0.23429l-0.29098 0.21965v0.11712l-0.2686 0.10253-0.87293 0.9077v2.4745l0.2686 0.21959v0.21965l0.29097 0.23429v0.11712l0.31336 0.10253v0.11712h0.2686v0.21958h0.29098v0.2343l0.58196 0.10247 0.29097 0.11712 0.62672 0.11711 0.26858 0.10253 1.1639 0.11712 0.31336 0.11712 0.87293 0.10253 1.1415 0.11712h3.2231l0.58194-0.11712 0.87294-0.10253 1.7459-0.11712v-0.11712h0.31336l1.1863-0.21964h0.24621v-0.11712l0.62672-0.10247 0.2686-0.11718h0.60434l0.87293 0.11718h0.26858v0.10247h0.29099l0.31335 0.11712h0.2686l0.29097 0.11711 0.62672 0.10253 0.2686 0.11712 0.38051 0.13177 0.22382 0.0879 0.2686 0.11712v0.11717l0.29098 0.10247v0.11712l0.31336 0.11712 0.26858 0.10247v0.23429l0.29099 0.10247v0.2343l0.31334 0.11712v0.67352l0.2686 0.21959v0.67359h-0.2686v0.21959l-0.31334 0.23423-0.29099 0.4393-0.58194 0.45388-0.29098 0.11712v0.11718l-0.2686 0.10247-1.1863 0.3367h-0.31336l-0.55957 0.2343h-0.60434l-0.58194-0.11718-0.55957-0.11712h-0.60434l-0.58196-0.10247h-1.4549l-0.29098 0.10247h-0.31336l-0.2686 0.11712v0.11718h-0.29097l-0.31336 0.10247v0.11717l-0.55957 0.45389-0.31336 0.10247v0.11711l-0.26859 0.11718v1.0103l0.26859 0.11712 0.31336 0.55635v0.21965l0.22382 0.33677 0.0672 0.11711 0.2686 0.11712v1.0103l0.31336 0.11711v2.3572h0.29097v0.21965l0.2686 0.11717 0.31336 0.21965 0.29098 0.11712 0.26858 0.11711h0.87293l0.62672-0.23423h0.55958l1.7458-0.10253h0.31336v-0.11712h0.55957l0.31336 0.11712h0.31336l0.2686 0.10253 0.87292 0.23423 0.60435 0.21959 0.55955 0.21965v0.23424l0.58196 0.21964 0.29097 0.33677 0.31337 0.33676 0.2686 0.45388 0.31336 0.21965 0.55957 0.23424 0.31334 0.10253h1.4325v-0.10253h0.31336l1.4773-0.23424 0.2686-0.11718h0.31335v-0.10247l1.1639-0.11717h0.58196l0.87294 0.11717 0.31336 0.10247 0.55957 0.2343h0.31334l0.2686 0.11712v0.10253l0.29098 0.11711 0.31336 0.55636 0.2686 0.11711v0.11712l0.29097 0.55647 0.31336 0.11712v0.33671l0.55957 0.67353v2.3573l-0.29097 0.11712v1.0103l-0.2686 0.11712v1.1128l-0.31336 0.2343v0.21959l0.31336 0.21964v0.45394l0.2686 0.11712v0.11712h0.29097v0.10247l0.87294 0.45388 0.6267 0.21965h0.2686l0.29097 0.11712h0.87294v-0.11712l0.31336 0.11712h0.55957l0.58194-0.11712h0.29099l0.31336-0.10253 0.87292-0.11712h0.58196v-0.11717l0.55957-0.10242 1.1863-0.23429 1.1863-0.10247v-0.11712h0.87294l0.29097 0.11712 0.2686 0.10247v0.11712h0.31336v0.79064l-0.31336 0.10253v0.33671l-0.2686 0.11718v0.11711l-0.29097 0.10247v0.45389l-0.31337 0.33682-0.2686 0.11712-0.29097 0.3367-0.31336 0.11718-0.26858 0.10247-0.60435 0.11712-0.31335 0.11712-0.2686 0.10253-0.60433 0.11711-0.55957 0.11712h-0.58196l-0.29097 0.10253h-0.58195l-0.31336 0.11712h-0.55957l-0.87293 0.21965-1.7459 0.23423-0.6267 0.21959h-0.29099l-0.26859 0.21965-0.31336 0.11717-0.29097 0.11712-0.2686 0.21965v1.6838l0.2686 0.33671v0.11717h0.29097l0.31336 0.21965v0.11712h0.26859l0.60435 0.21965 0.58194 0.23423v0.11718h0.29097v0.21959l0.58196 0.21958v0.2343l0.29098 0.21965v0.11711l0.31336 0.10253 0.2686 0.45383h0.29097v0.11717l0.31336 0.10247v0.11712l0.26858 0.11712v0.21965l0.29099 0.11711 0.31336 0.10253 0.58195 0.2343 0.29097 0.11711h0.2686v0.10247h4.4094l1.1415 0.11712h0.87292l0.62672 0.11712h0.55957l0.58196 0.10247 0.60433 0.11718h0.26859v0.11711h0.60435l0.55955 0.10253h0.87294v0.11712h0.89532v-0.11712h0.60433l0.26858-0.10253 0.60435-0.11711 0.26859-0.11718 0.60433-0.33671 0.55957-0.10247 0.31336-0.23429 0.58196-0.21965 0.29098-0.11711h1.1415l0.31336 0.21964h0.29097l0.2686 0.11712v0.11718h0.31337l0.29097 0.11711 0.58196 0.33671h0.60433v0.10247h2.0144l0.31336-0.10247h0.29097v-0.11712h0.2686l0.31336-0.21959 0.31337-0.11711v-0.11718l0.55957-0.67353 0.31334-0.21959v-0.11717l0.55945-0.21959h0.31337v-0.11712h1.4325l0.31336 0.11712v0.10247h0.31336l0.24621 0.11712v0.11717h0.31336v0.21959l0.31337 0.11712v0.7907h-0.31337l-0.31336 0.33671v0.55641h0.31336v0.11712h0.31337l0.26858 0.10253h0.29097v0.11712h0.31336v0.11711h1.1415l0.60434-0.11711 0.26858-0.11712 0.29099-0.10253 0.31336-0.11712 0.58194-0.11712v-0.10253l0.29098-0.11711h1.7459l0.2686 0.11711 0.31335 0.10253v0.11712l0.29099 0.11712v0.43923l0.31336 0.2343v0.3367l-0.31336 0.10253v0.33677h-0.29099v0.11718h-0.31335v0.11711h-0.55957l-1.1863-0.23429-0.2686-0.10247h-1.4773l-0.26858 0.10247h-0.31336v0.35141l-0.29098 0.10247v0.11712l0.29098 0.21965v1.4641l0.31336 0.45394v0.21965l0.26858 0.23424v0.33676h0.29099l0.31336 0.33671v0.10253h0.26858v0.11711l0.31336 0.11712v0.10253h0.29098v0.2343l0.2686 0.10247v0.11711h0.31336v0.21959h0.29097v0.11712l0.2686 0.11718v0.79064h-0.2686v0.21965l-0.29097 0.21959v0.11712h-0.31336v0.11711l-0.2686 0.21965v0.21965l-0.29098 0.11717v-0.21964h-0.31336v0.10247l0.31336 0.23429v1.5666l0.29098 0.11712v0.11711l0.2686 0.10248 0.31336 0.11711 0.29097 0.11718 0.58196 0.10247 0.29097 0.11718 0.2686 0.11711 0.60434 0.21965 0.31336 0.11712 0.26858 0.10247 0.31336 0.11712h0.29097l0.2686 0.11717h0.31336v-0.23429l0.29098-0.10247v-0.23424h0.2686v-0.21964l0.31336-0.11718v-0.10247l0.29097-0.45388 0.2686-0.79065v-0.33676h0.31336l0.29097-0.21965 0.26858-0.23424 0.62673-0.10247h0.55957v0.10247h0.31336v0.23424h0.2686v0.21965l-0.2686 0.11711-0.31336 0.21965v0.11712l-0.55957 0.43923-0.62673 0.68818v0.10247h-0.26858v0.23429l-0.60433 0.67353v1.2299l0.31336 0.11711v0.11712l0.29097 0.10247h0.26858v0.11718h0.87294v-0.11718h0.31336v-0.10247h0.31336l0.2686-0.23423h0.29097l0.31336-0.11712v-0.10247l0.26859-0.11718 0.29098-0.11712 1.4996-0.776h0.24621v-0.11717l0.62673-0.11712h0.55957l0.31336 0.11712 0.55957 0.11717h0.31336v0.10247h0.26858l0.29098 0.11712v0.11712l0.58196 0.33676 0.29097 0.10253 0.31336 0.2343h0.2686v0.10247l0.31336 0.11712h0.29097l0.2686 0.11711h0.31335l0.29099 0.11712h0.58194v-0.11712h0.55957v-0.11711h0.31336v-0.11712l0.29098-0.10247 0.31336-0.11718 0.2686-0.11712v-0.10253l0.31336-0.11711 0.55957-0.45389h0.31334v-0.10247l0.55958-0.11717v-0.11712h0.31336l0.29099 0.11712h0.26858v0.11717h0.31336l0.55957 0.33671 0.31336 0.10253h1.1863l1.1415-0.10253h0.29097l0.31337-0.11712 0.55957-0.11712v0.11712l0.62672-0.11712v0.11712h0.24621v0.11712l0.31336 0.10253v0.11712h0.31336l0.55956 0.45394 0.87293 0.79059 0.31336 0.10253v0.11711h0.55957v0.11712h0.87294l0.31336 0.10253h0.26858v-0.10253h0.31336v-0.11712l0.29097-0.11711 0.58196-0.21965 0.55958-0.11718v-0.10247h0.31336l0.55957-0.23423v-0.11712h0.60433l1.1863-0.33677 0.2686-0.10253 0.87293-0.11711h1.4773l0.58194 0.21964 0.31336 0.2343v0.10247l0.24621 0.11712 0.31337 0.11711v0.21959l0.31336 0.11718v0.89312l-0.31336 0.45388v0.21965h-0.31337v0.45394h-0.24621v0.21958l-0.31336 0.11712v0.2343l0.31336 0.21958-0.31336 0.45389h-0.31336l-0.26858 0.43929v0.23424h0.26858l-0.26858 0.21958-0.29097 0.67359v4.2754l0.29097 0.79058v0.776l0.26858 0.11718v0.33671l0.31336 0.57106 0.31336 0.33676v0.10247l-0.31336 0.11712v0.33676h0.31336v-0.11711l0.55958-0.55636v0.21959l0.31336 0.33677v0.23423l0.87293 1.3471h0.26858v0.33676l0.29099 0.45389v0.21964l0.31336 0.11712v0.776l0.26859 0.33677v0.90776l0.29097 0.45394v0.5563l0.31336 0.21964v0.33683l0.31336 0.3367v0.2343l0.24621 0.21958v0.23424l0.31336 0.21965v0.11717l0.31336 0.10247 0.2686 0.45389 0.87292 0.79064 0.29099 0.10253 0.31336 0.11712 0.26858 0.11712v0.10247l0.29097 0.11718 0.31336 0.21958 0.55958 0.11712 0.89532 0.23424h0.29097v0.10253h0.2686l1.1863 0.11711 3.8051 0.33683 3.2008 0.21959 1.7459 0.11711h0.60434l2.6188 0.21959 2.9321 0.2343 2.6188 0.21964h0.58194l0.87294 0.11712 0.31336 0.10253 0.87293 0.11712 0.29097 0.11711v0.10248l0.58196 0.11717v0.11712h0.29098l0.26858 0.21959v0.11712l0.31336 0.11717 0.31336 0.10247v0.11718l0.24621 0.11712v0.21964l0.31336 0.11712 0.31336 0.43924 0.2686 0.23423v0.33677l0.29098 0.21964v1.6838h-0.29098v0.67353l-0.2686 0.45394-0.31336 0.45382v0.33677l-0.31336 0.11711-0.55957 0.55642-1.1863 1.0103v0.11712l-0.2686 0.10253-0.29097 0.11712-0.31336 0.11711-0.55957 0.43924v0.11712l-0.31336 0.11711-0.2686 0.11712-0.60434 0.55647-0.26858 0.11712v0.21959l-0.60433 0.33676v0.11712l-0.31336 0.33676-0.2686 0.43924v0.23429h-0.29098l-0.31336 0.67353-0.2686 0.33677-0.29097 0.45388-0.31336 0.55635-0.55957 0.79065v0.45388l-0.89531 1.6838v0.43929l-0.29099 0.23424v0.45388l-0.26858 0.43929-0.31336 0.45389-0.55957 1.0103-1.1863 1.8009-0.55955 1.0103v0.55629l-0.31336 0.23429v2.0206l0.31336 0.33671v0.45388l0.26858 0.79071 0.29097 0.10247v0.3367l0.31337 0.2343v0.21964l0.2686 0.21965v0.23424l0.29097 0.21964 0.31336 0.33671v0.11712l0.2686 0.21964 0.60433 0.45395 0.26858 0.3367 0.29099 0.21965 0.31336 0.23423 1.7458 1.0103 3.5141 2.3574 0.55957 0.33671h0.31336v0.11711h0.29097l0.2686 0.21959h0.31336v0.11718h0.29098v0.21965l0.58194 0.23423 0.31336 0.21965 0.55957 0.21959v0.23429l0.31336 0.10247 0.2686 0.45388 0.29098 0.11718v0.10247l0.31336 0.11718 2.9321 1.8009 1.4325 0.89318 0.31337 0.11711h0.26858v0.11712h0.60433l0.2686 0.10247 0.60433 0.45388 0.87294 0.67353 0.87293 0.45389 0.26858 0.11711v0.10247h0.31336v0.11718l0.55958 0.33677 0.31336 0.21964v0.33671l0.29097 0.11718 0.89532 0.55635h0.29097l0.2686 0.11712 0.31335 0.11717 0.29099 0.11712 0.26858 0.21965 0.31336 0.3367 0.55957 0.33677 0.31336 0.11712v0.10252h0.29098l0.58196 0.23424v0.10253h0.31336v0.11712l0.24621 0.11717 0.31336 0.43918 1.4549 0.79071 1.4773 1.0102 1.7458 1.1274v0.11712l0.31336 0.10253 0.2686 0.23424 0.29097 0.10252v0.11712l0.31337 0.11712 0.2686 0.11718 0.29097 0.21958 0.31336 0.11712 0.26858 0.10247 0.29099 0.11712 0.31336 0.11718 0.58195 0.10247 1.7459 0.45394 0.29097 0.11712 0.87294 0.10247 0.31336 0.11711 0.87291 0.11718h0.2686l0.60434 0.10241h0.58196l0.87293 0.11718 0.87292 0.11712h4.9914l0.55957-0.11712 1.1863-0.21959h0.26859l0.60433-0.23429 0.55957-0.10247 0.89532-0.23424 0.55957-0.10253 0.87292-0.23429 1.4773-0.33677 0.89532-0.10247 0.29097-0.11712 0.58194-0.11711 0.55958-0.10247h0.60435l0.26858-0.11718h3.2231l0.8953 0.11718h0.5819l0.291 0.10247h0.582l0.5819 0.11711h0.291v0.11712l0.291 0.10247 0.291 0.2343 0.2909 0.10247 1.1639 0.33682 0.582 0.23424 0.3133 0.10247 1.4549 0.3367 0.582 0.11718 0.2909 0.11712 0.291 0.10253 0.291 0.11711h0.291l0.8729 0.21965 0.291 0.11712 1.1863 0.23429h2.6188l0.8729-0.11711h0.291l1.4772-0.2343h0.291l0.582-0.10253h1.7458l0.291 0.10253 0.291 0.2343 0.2909 0.21958v0.11712l0.582 0.67353 0.291 0.21965 0.291 0.23423v0.10247l0.2909 0.11712 0.291 0.33677 0.3134 0.11711 0.2909 0.10253 0.291 0.11712h0.291v-0.79065l0.291-2.6941v-1.5666l-0.291-0.68818 0.291-0.33682v-0.67347l0.291-0.10247v-0.2343l0.2909-0.10253 0.291-0.3367 0.291-0.11712 0.291-0.33677 0.2909-0.23423 0.291-0.10253 0.291-0.11712 0.582-0.33682v-0.11712l0.2909-0.10247 0.291-0.23424h0.291v-0.21964l0.3133-0.11712v-0.10253l0.291-0.11712 0.291-0.21964 0.291-0.33671 0.2909-0.11718 0.291-0.11711v-0.21959l0.291-0.11712 0.5819-0.55647 0.291-0.23424 0.291-0.21958 0.8729-0.45389 0.291-0.10253 0.291-0.33676 0.2909-0.2343v-0.10247h0.291l0.291-0.11711v-0.11712l0.3134-0.10247v-0.11712l0.2909-0.11718 0.291-0.10247h0.291v-0.11717l0.5819-0.33677 0.582-0.23423v-0.10247h0.582v-0.11718h0.2909l0.291-0.11712v0.11712h0.291v-0.11712h0.291l0.2909-0.10247 0.291-0.23423 0.291-0.10253 0.291-0.11712v-0.21965l-0.291-0.11717v-0.21959l0.291-0.11712h0.3133v-0.11712l-0.3133-0.10247h0.3133v-0.11717h0.291v0.11717h0.582l0.2909-0.11717 0.291-0.11712 0.291-0.10253 0.291-0.11712 0.5819-0.23423 0.291-0.10253h0.291v-0.11712l0.8729-0.21965 0.291-0.11712 0.5819-0.21958v-0.33677l0.291 0.10247h0.6043l0.291-0.10247 0.8729-0.45394 0.873-0.11712h0.2909l0.291-0.10247v0.43924h0.291v-0.21965l0.291-0.11712 0.291-0.33676 0.2909-0.10241v-0.11718h0.873l0.2909 0.11718v-0.11718l-0.2909-0.11712h0.6043l-0.3134 0.11712h0.3134v0.11718h0.291v0.10241l0.291 0.11717v-0.33676l0.2909 0.11718v-0.2343l-0.2909-0.10253v-0.11712h0.2909l0.291-0.11711h0.582l0.2909-0.11718h0.873v-0.10247h0.2909l0.291-0.11718h0.582v0.11718h0.2909l0.291 0.10247 0.291-0.10247h0.3134v-0.11718h0.2909l0.291-0.11711v-0.10248l0.291-0.3367v-0.33677l0.291-0.11717v-0.11712h-0.291v-0.10253l0.291-0.11712v-0.21959l0.2909-0.11711v0.45382l0.291-0.11712 0.291-0.21959h0.291l0.2909-0.23429 0.291-0.21959 0.8729-0.57106 0.582-0.33676 0.8729-0.21959 0.3134-0.11712 1.1639-0.33676h0.291v-0.10253l0.5819-0.23424 0.582-0.21964h0.291v-0.21959h1.4548l0.291-0.11718h0.291v-0.11712h0.291l0.3133-0.10247h1.1639l0.291-0.11711h0.291v-0.11712h0.5819l0.291-0.10253h2.9322v0.10253l0.2909 0.11712v0.67347l0.291 0.11711v0.21965l0.291 0.11712 0.291 0.10253 0.8729 0.45388 0.291 0.11712h0.5819v0.10247l0.291 0.23429v0.10247l0.582 0.35142 0.5819-0.23424 0.291-0.11718 0.291-0.10247 0.3133-0.23429 0.582-0.10247 0.291-0.11712h0.2909v-0.11712h0.291v0.11712l0.291 0.21959h0.291l0.2909 0.11712 0.291 0.11717 0.291 0.21965 0.291 0.23424 0.5819 0.21964v0.21959l0.291 0.23429v0.33671l0.291 0.33682v0.21965l0.2909 0.11712v2.4744l0.291 0.21965v0.3367l-0.291 0.11712h-0.2909v0.21965l-0.291 0.21965 0.291 0.23423v0.45394l-0.291 0.21959v0.33671l0.291 0.11717-0.291 0.10247h0.291l-0.291 0.2343v0.10253h0.5819v-0.21965l0.291 0.11712 0.3134 0.10253v0.11711l0.2909-0.11711v0.23423l0.291 0.10247v0.2343l-0.291 0.21958v0.11712l-0.2909 0.10253-0.3134 0.11712-0.291 0.23429h0.291l0.3134-0.11717v0.11717l0.2909-0.11717v0.11717h0.291v0.21965h0.291v-0.21965h0.291l0.291-0.11717v0.21964h0.2909v-0.10247h0.291l0.291 0.10247v0.2343h0.291v-0.11712h0.2909v0.21959l0.291-0.10247v0.10247h0.582v-0.10247l0.291-0.11712h0.8729l0.291-0.11718h0.6043v-0.10247h-0.291v-0.11717h0.291v-0.11712l0.5819-0.11712-0.2909-0.10253v-0.11712l0.2909-0.11711h0.291v-0.10247h0.582v-0.2343h0.2909v-0.10247l0.291-0.11712v0.33671l0.291 0.11718 0.291 0.10247v-0.10247h0.291l0.2909-0.11718v-0.11712h0.291v0.11712h0.291v-0.45382h-0.291v0.11711l-0.291-0.11711-0.2909-0.10253v-0.11712h0.2909l0.291 0.11712v-0.2343l-0.291-0.10247h0.291v-0.23429h0.582v-0.10247h0.2909v-0.571h0.291v0.11712l0.291 0.11717v0.10247l0.3133 0.11712v-0.21959l-0.3133-0.23429h0.3133v0.11712h0.582l0.291-0.11712h0.2909v-0.10253h-0.5819l-0.291 0.10253v-0.21965h0.291v-0.23423l-0.291-0.10253-0.291-0.2343v-0.3367h0.291v-0.10247h0.291l-0.291-0.11712v-0.21965h-0.8953v-0.23429h0.291v-0.33677h0.6043l-0.291-0.10247h0.291v-0.11712h1.1639l-0.291-0.11717v-0.21959l-0.2909 0.11718v-0.2343h0.2909v0.11712l0.291 0.11718 0.291-0.11718 0.291 0.11718 0.291-0.11718v0.21959h0.2909v-0.33671h-0.2909l-0.291-0.10253h0.5819v0.10253l0.291-0.10253h0.291v-0.11712l0.291-0.11711v-0.33683h-0.291v-0.21959h-0.8729l-0.291-0.11711-0.291-0.11712h0.291l-0.291-0.10247-0.291-0.11712v-0.55647l0.291 0.10253-0.291-0.21965 0.291-0.21959 0.291-0.11711h0.5819v0.11711h0.291l0.291-0.11711v-0.21965l0.291 0.21965h0.2909v-0.11718l-0.2909-0.21959v-0.33676l0.2909 0.11712v-0.11712l0.291-0.11712h-0.291v-0.21965h-0.2909l0.2909-0.11717 0.291-0.11712v-0.21959l0.291-0.11712v-0.10247h0.291v-0.23429l-0.291 0.11712h-0.291v-0.11712h-0.291l0.873-1.0103v-0.43923l0.6043-0.57106v-0.21959l0.291-0.23429 0.291-0.21959 0.5819-0.45388v-0.10253l0.291-0.11712 0.291-0.21965v-0.11711l0.2909-0.21959v-0.57106l0.291-0.11712v-0.10253l0.291-0.11712v-0.11711l0.291-0.10247 0.2909-0.11718v-0.21959h0.291v-0.11712l0.291-0.33676 0.5819-0.33683v-0.3367l0.291-0.11712v-0.10247l0.291-0.11718 0.291-0.11711v-0.10253l0.6043-0.11712v-0.11712l0.582-0.21965 0.2909-0.11711v-0.21965h0.291v-0.67347h0.291l0.291-0.11718v-0.21964l0.2909-0.11712v-0.11712l0.291-0.21959 0.873-0.55641 0.2909-0.35141v-0.10247h-0.2909v-0.33677l0.2909-0.11711v-0.11712l0.291-0.21959v-0.21965h0.291l0.291-0.33682 0.2909-0.571v-0.10247l0.291-0.11712 0.3134-0.21965 0.291-0.33676 0.2909-0.23429 0.582-0.33671v-0.11712l0.291-0.21965v-0.11711l0.2909-0.10253v-0.23424h0.291v-0.33676l0.291-0.10247 0.8729-0.90783 0.291-0.10247v-0.11717l0.291-0.23424 0.2909-0.55635v-0.11712l0.291-0.10253v-0.11712l0.8953-0.21964 0.291-0.11712v-0.11718l0.291-0.10241v-0.11718l0.291-0.11711v-0.21959l0.2909-0.11712 0.291-0.33682 0.582-0.33677v-0.11712l0.2909-0.10247 0.582-0.11711v-0.11718l0.291-0.10247v-0.33677l0.2909-0.11711 0.582-0.21965v-0.11712l0.291-0.11717v-0.21959l0.5819-0.45388v-0.21965l0.291-0.21965 0.3134-0.23423 0.2909-0.21959 0.291-0.11718 0.2686-0.11712v-0.10247l0.3134-0.23423v-0.21965l0.8729-0.33682 0.291-0.11712 0.2686-0.33671 0.3133-0.21964 0.291-0.11712v-0.33677h0.3134l0.2686-0.21964 0.6043-0.45389v-0.21958l0.2686-0.11712 0.3134-0.21965v-0.11717l0.2909-0.21965 0.2686-0.33671h0.3134v-0.23429h0.291v-0.10247h0.2685v0.33676l0.3134-0.11712 0.291-0.11717 0.5819-0.10247 0.291-0.11712 0.2686-0.21965v-0.11711l0.3134-0.11712 0.3133-0.33683v-0.11711l0.2462-0.10247 0.3134-0.11712h0.3134v-0.11712l0.2685-0.21965 0.291-0.11711 0.582-0.33677 0.8953-0.21965h0.2686v-0.45388l0.8729-0.10247v-0.11712l0.3134-0.11711 0.5819-0.33683 0.291-0.10247 0.582-0.11717 0.2909-0.11712v-0.21959l0.582-0.23429 0.6043-0.21959 0.5596-0.21965 0.5819-0.33676v-0.11712l0.6044-0.45388 0.2686-0.21959 0.3133-0.11712h0.291l0.2686-0.21971 0.6043-0.21964 0.3134-0.11712 0.2686-0.23424 0.291-0.10247 0.3133-0.11711v-0.11718l0.582-0.10247v-0.11712l0.2909-0.11712 0.582-0.10253 0.291-0.23423h0.2686v-0.10253l0.3133-0.11718 0.291-0.21959 0.2686-0.11711 0.3134-0.11712h0.2909v0.3367l0.2686-0.10247h0.3134l0.3134-0.11711 0.2462 0.11711v-0.571h0.8953v-0.21964h0.291v-0.11712l0.3133-0.10253 0.2686-0.11712v-0.11712h0.291v-0.21958h0.3134v-0.11718l0.2909-0.11712 0.2686-0.21959 0.3134-0.11711h0.5595l0.3134 0.11711v0.11712h0.582l0.2909-0.11712 0.3134-0.11711v-0.10253h0.2686v-0.11712h-0.2686v-0.11718h0.2686v-0.33676l-0.2686-0.10247v-0.11712l0.2686-0.33676 0.6043-0.33677 0.5596-0.33676 0.3133-0.33677 0.873-0.45382 0.5819-0.33683 0.291-0.21964h0.2686v-0.11712h0.3134v-0.11712l0.2909-0.21959 0.873-0.45388 0.5819-0.21965 0.6044-0.11711 0.5819-0.10253 0.291-0.11712h0.2686v-0.11718h0.3133v0.11718h0.291v-0.21965h0.2686v-0.11712h0.3134v-0.90776l0.291-0.33676 0.5819-0.21965 0.291-0.33671 0.8953-0.55641 0.2462-0.23429v-0.10247l0.3134-0.11712 0.3133-0.2343 0.5596-0.21958v-0.11712l0.3133-0.10253 0.2686-0.23424 0.291-0.21964 0.6043-0.21965 0.2686-0.33671 1.1863-0.45394 0.582-0.33676 0.291-0.21959 0.5819-0.23429 0.8729-0.45383 0.291-0.21965 0.582-0.21964 0.291-0.11718 0.3133-0.11712 0.582-0.10247 0.2909-0.11711v-0.11712l0.582-0.21959 0.291-0.11718 0.8729-0.33676 1.4549-0.43924 1.1863-0.45388 1.7458-0.57106 0.5596-0.10247 0.3133-0.11718h0.3134v-0.11711h0.2462l0.3134-0.10247 0.3133-0.11712 0.873-0.21959 0.5595-0.23429 0.6044-0.10253 0.5819-0.11712h0.3134l0.5596-0.11712h0.8729v-0.10253l0.3134-0.11712 0.5595-0.21958v-0.11718l0.3134-0.11712h0.2686l0.291-0.11712v-0.10247l0.5819-0.11711 0.291-0.11718 0.3133-0.10247h0.2686l1.1863-0.33682h0.291l0.2686-0.11712 0.6043-0.21959 0.582-0.11712v-0.11717h0.2909l0.3134-0.10247 0.2686-0.11712 0.6043-0.21965 0.582-0.23423 0.8729-0.4393 0.291-0.11712 0.2686-0.11711 0.3134-0.11712 0.5595-0.10247 0.6267-0.2343h0.2463l0.6267-0.10253 0.2686-0.11711h1.1639l0.3133 0.11711h0.5596l0.3134 0.10253 0.3133 0.11712 0.2462 0.11718v0.45382h0.6268v-0.23423h-0.3134v-0.11712l0.3134 0.11712h0.2685l0.6044 0.11711v-0.11711l0.5595 0.11711v0.11712h0.3134v-0.11712l0.5596-0.11711h0.3133l0.2686-0.11712 0.291-0.10247 0.3134-0.11718 0.2686-0.11712 0.6043-0.21964 0.5819-0.11712h0.291l0.3134-0.10253h0.5596l0.5819-0.11712 1.4773-0.11712 0.2686-0.10247h0.3133v0.10247h0.5596v0.23424l0.3134 0.10253 0.291-0.10253v-0.33671h0.2686l1.4996-0.23429h0.2462l0.6267-0.10247h0.2686v0.21959h0.291v-0.21959h0.3134v0.10247h0.5595l0.3134 0.11712h0.291v-0.11712h0.2686v0.11712h0.3133v0.21964l0.3134 0.11712v0.11712h0.2462v0.33676l0.3133-0.11711v-0.11712h0.3134v-0.10253l0.2686 0.10253 0.291 0.11712h0.3133l0.2686-0.11712h0.291l0.3134-0.10253h0.2686v-0.11712h0.2909v0.11712h0.3134v-0.33671h0.2686v-0.11717h0.291l0.3133-0.11712 0.873-0.10247h0.8729l0.3134 0.10247h0.2685v0.11712h0.291v-0.11712l0.3134-0.10247h0.5595l0.3134-0.11712h0.2686l0.3134-0.11712h0.5595v0.11712h0.3134v0.11712h0.291v-0.23424h0.2686l0.3133 0.11712h1.7459l0.5595-0.11712h0.6268v-0.10253h0.2686l0.2909 0.10253h0.6044l0.2686-0.10253h1.4996l0.2462-0.11711v-0.11718h1.4997v0.11718h0.2686v-0.11718h1.4772l0.2686-0.10247v-0.11718l0.6044-0.21959h0.2685l0.6044-0.35141 0.8729-0.21959v-0.11711h0.3134l0.5595-0.21965 0.582-0.11712 2.3502-0.55641 0.8729-0.11712 0.873-0.21959 0.8953-0.21964 0.5595-0.11718 0.582-0.11712h0.291l0.3133-0.10253h1.1639l0.582 0.10253h0.5595l0.3134-0.10253h0.3134v-0.11711h0.2686l0.6043-0.11712h0.5596l0.3133-0.10247 1.1415-0.2343v-0.10247l0.6044-0.11711 0.5819-0.23424h0.291l0.582-0.10253 0.6043-0.11712 0.5596-0.11717 0.5819-0.10247 0.291-0.11718 0.582-0.11712v-0.10247l0.6043-0.11712 0.582-0.11711v-0.10247l0.8729-0.11712h0.291v-0.11718l0.2685-0.10253 0.3134-0.11712 0.5596-0.45388 0.3133-0.10247v-0.11712l0.3134-0.11717v-0.10247h0.2462l0.3134-0.11712 0.3133-0.11712h0.5596l0.3133 0.11712h0.291v0.11712l0.2686 0.10247 0.3134 0.11717 0.2909 0.21959 0.2686 0.11712 0.3134 0.21965 0.5596 0.23423v0.10253l0.6267 0.2343 0.2686 0.21958 0.291 0.11712 0.5819 0.21959 0.291 0.11718 0.582 0.10247v0.11717l0.2909-0.11717 0.582-0.21965 0.291-0.21959v-0.11712l0.3133-0.21958v-0.11712l0.2686-0.33683 0.3134-0.21964v-0.23424l0.291-0.21959v-1.8009h-0.291v-0.11711h0.291v-0.55642h0.2685v-0.11711l0.3134-0.10247h0.291v0.21958h-0.291v0.11712h0.6043v-0.11712h0.2686v0.11712h-0.2686v0.10253h0.873v-0.10253h0.2686v-0.11712h0.2909v-0.11711h-0.2909v-0.10247h0.6043v-0.11718h0.2686l0.3133-0.21959v0.10247l0.291 0.11712v-0.21959h0.2686v-0.11712h0.3134v-0.33676l0.2909-0.11718v-0.33676l0.2686-0.21959v-0.11712l0.6044-0.33676v-0.11712h0.5819v-0.10253h0.291v-0.11712h0.2686v-0.21965l0.3134 0.10253 0.3133-0.10253h0.2462v-0.11711l0.3134-0.11718h0.3133l0.2686-0.10247h0.291l-0.291-0.11712h0.291l0.3134-0.11712v-0.10247h0.2909l0.2686-0.11711 0.3134-0.11718v-0.11712l-0.3134-0.10253 0.3134-0.11711v-0.11712h0.291v0.11712h0.8953v-0.11712l0.2462-0.10253 0.3134-0.11712 0.3133-0.11712v-0.21964l0.2686-0.11712v-0.10247l0.291-0.11712 0.3134-0.11712 0.2686-0.10253v-0.11711l0.2909 0.11711h0.3134v-0.11711l0.2686-0.11718v-0.10247l0.291-0.11718 0.3133-0.11712h0.8729l0.2686-0.10247 0.6044-0.11711 0.2686-0.11712 0.3133-0.10247 0.291-0.11718h0.3134l0.2685-0.11712v-0.11711l-0.2685-0.10253v-0.11712h0.2685v-0.11712h0.291l-0.291 0.11712v0.21965h0.291l0.3134-0.10253 0.5596-0.23424 0.3133-0.10253h0.2686l-0.2686-0.11712 0.2686-0.11717h0.3134l0.2909-0.10247h1.1416l0.3133-0.11712h0.291l0.8729-0.11712 0.2686-0.10247h0.3134l0.3133-0.11712h0.2463v-0.21964l0.3133-0.11718v0.11718h0.3134v-0.2343h0.2686v0.33677h1.4772l0.291-0.10247h0.582v-0.11718h0.3133v-1.1274l-0.3133-0.21965v-0.11712h-0.3134l-0.2686-0.11717 0.2686-0.10247v-0.2343l0.3134-0.21959v-0.33676l0.3133-0.21965v-0.33676l-0.3133-0.33671v-0.33676l-0.3134-0.23424h-0.2686v-0.11718l-0.291-0.10247-0.3133-0.11717v-0.21965h-0.2686v-0.11712l-0.291-0.11712v-0.21958l-0.3133-0.21959v-0.11718h-0.291l-0.2686-0.21965v-0.67347l-0.3134-0.11717v-0.45383h-0.3133v-0.21964h0.3133v-0.11718l-0.3133-0.11712v-0.67353h0.3133v-1.1128l-0.3133-0.11712v-0.11712h-0.2463v-0.45388l0.2463-0.10253v-0.90776l-0.2463-0.33671v-0.21965l-0.3133-0.21964-0.582-0.2343-0.2909-0.10247-1.1863-0.571-0.5596-0.33676-0.3134-0.21965-1.1415-0.571-0.3133-0.10247-0.873-0.33676-0.291-0.11718-0.2685-0.11712v-0.10253l-0.9177-0.3367-0.2686-0.11712-0.291-0.11718-0.3134-0.10247-0.2686-0.11712h-0.3133v-0.21964l-0.5596-0.23424-0.3133-0.11718v-0.10247l-0.291-0.11717-0.2686-0.11712-0.3134-0.21959-0.5595-0.21959-0.6044-0.11717-0.2686-0.21965-0.3133-0.11712-0.5596-0.11712-0.3134-0.10252-0.5819-0.23424v-0.33676l0.5819-0.33671 0.3134-0.33682 0.2462-0.21965v-0.23424l-0.2462-0.10247-0.3134-0.23429v-0.10241l-0.3133-0.11718-0.2686-0.21965-0.6044-0.33676v-0.11712l-0.2686-0.21959-0.2909-0.67353v-0.79064l-0.3134-0.2343v-0.21959l-0.291-0.21964v-0.33677l-0.2686-0.11712v-0.11717l0.2686-0.10247 0.291-0.23424h0.3134v-0.10247l-0.3134-0.11712v-0.57105l-0.291-0.21965v-0.67347h0.291l0.3134-0.11712v-0.10253l0.2909-0.11712v-0.79064h-0.2909v-0.33677h0.2909v-0.33676l-0.2909-0.33677v-0.33676l-0.3134-0.11712v-0.43924l-0.291-0.23429-0.2686-0.10253v-0.33671l-0.3133-0.23429v-0.21959l0.3133-0.21964v-0.23424l0.2686-0.33682v-0.11712l-0.2686-0.33671v-0.33676l-0.3133-0.10253v-0.11712l-0.3134-0.11712v-1.9034l-0.2462-0.11712v-0.21964h-0.6267l-0.2686 0.21964-0.291 0.21959-0.3133 0.11712h-0.2686l-0.291 0.11712-0.3134 0.10253h-0.2686l-0.2909 0.11711h-0.3134l-0.2686-0.11711h-0.291l-0.3133-0.33677v-0.67347h-0.2686v0.11712l-0.3134-0.11712 0.3134-0.10253v-0.11712l-0.3134-0.11711v-0.55641h-0.2909v-0.33671h-0.2686v-0.21965l0.2686-0.11717v-0.11712l-0.2686-0.11712-0.3134-0.33676h-0.291l-0.2686-0.10247-0.3133-0.11718-0.291-0.21959v-0.11712l-0.3134-0.21964v-0.79065h-1.1415l-0.6043-0.11712-0.582 0.11712h-2.3054l-0.6267 0.11712-0.2462 0.10247h-0.8954l-0.2909 0.11711h-0.873v0.11718l-0.6043 0.21965-0.2686 0.11712v0.10253l-0.3133 0.11711-0.5596 0.33671-0.8953 0.45388-0.6044 0.33677v0.11717l-0.2685 0.10247-0.291 0.11718h-0.3134l-0.5595 0.11712-0.582 0.10247h-0.291l-0.3133-0.10247v-0.11712l-0.2686-0.11718h-0.3134v0.11718l-0.291 0.11712h-0.2686l-0.3133 0.10247v0.11712h-0.291v0.11711h-0.2686l-0.3134 0.10247h-0.2909v-0.10247h-0.873l-0.3133 0.33677-0.2686 0.33676-0.8729 0.21965-0.6044 0.21959-0.2686 0.11717h-0.8729l-0.3134 0.11712-0.2909-0.11712h-0.8954l-0.2462-0.11717h-0.3133l-0.3134-0.10247-0.5595-0.23424-0.3134-0.21965-0.2686 0.11712v-0.11712l-0.8953 0.11712h-1.1415v-0.11712h-0.3134l-0.3133-0.11711v-0.10253l-0.2686-0.11712-0.291-0.11718v-0.21958h-0.3134v-0.90777h-0.2686v-0.10253l-0.291-0.11712h-0.5819l-0.8729-0.11711h-0.291l-1.4549-0.21965-0.6043-0.11712h-0.582l-0.291-0.10247-0.3133-0.11712v-0.11711h-0.2686v-0.10253l-0.291-0.33677v-0.23429l-0.3134-0.10247v-0.23424h-1.1415l-0.3133 0.11712-0.873-0.11712-0.5595-0.10247h-0.873l-0.3133-0.11712h-0.3134v-0.11717h-0.5595l-0.3134-0.10247h-0.2686l-0.291-0.11718h-1.1863l-0.8729-0.11712-0.3134-0.10253-0.2462-0.11712h-0.3133l-0.3134-0.11711h-0.8729v-0.11718h-0.2686v0.11718h-0.291l-0.3133 0.11711v0.11712h-0.5596v0.10253l-0.3134 0.11712-0.2686 0.11718-0.6043 0.10247h-0.2686l-0.3134-0.10247v-0.2343l0.3134-0.10253v-0.11712l-0.3134-0.11711v-0.33677l-0.2909-0.11712v-0.10247l-0.2686-0.23423-0.6044-0.21965v-0.21965l-0.2685-0.23429-0.3134-0.21959-0.291-0.45388-0.3133-0.33676-0.2686-0.21965 0.2686-0.2343 0.3133-0.21958-0.3133-0.55636v-0.11717l-0.2686-0.33677v-0.21959l-0.291-0.571v-1.1274l-0.3134-0.33676v-0.4393l-0.5819-0.67347-0.291-0.45388-0.2686-0.33682v-0.11712l1.1415-0.21959 0.3134 0.21959 0.291 0.11712 0.5819 0.11717 0.291-0.11717v-0.79059l0.3134-0.11712v-0.33676l0.2685-0.10253v-0.11712l0.291-0.11718v-0.10247l-0.5595-0.571-0.3134-0.43929-0.291-0.23424v-0.11712l-0.3133-0.10247v-0.23429l-0.2686-0.33671v-0.10253l-0.291-0.23429v-0.33676l-0.3134-0.33671v-0.10247l-0.2686-0.67359-0.3133-0.11712 0.3133-0.11711-0.3133-0.33677-0.291-0.89312 0.291-0.11711 0.5819-0.11718-0.2686-0.55635v-0.11712l0.582 0.23423 0.5596-0.571 0.3133-0.45388v-0.33676l0.291-0.67353-0.6043-1.1128-0.2686-0.45388-0.291-0.45388v-0.45388l-0.3134-0.43924-0.2686-0.79065v-0.21964l-0.3133-0.2343v-1.1274l-0.291-0.77606v-2.1376l0.291-0.33676v-0.23424l-0.291-0.55641-0.2686-0.55635v-0.11718l-0.3134-0.21959h-0.2909v-0.23429l-0.2686-0.11712v-0.55635l0.2686-0.33677 0.2909-0.33676v-0.21965l0.3134-0.11711v-0.67353l-0.3134-0.45389v-0.67353l-0.2909-0.55635v-0.67353l0.2909-0.45388 0.3134-0.11712v-0.55641h0.2686v-0.23424h0.291l0.3133-0.10252 0.2686-0.11712v-0.11712h0.6044l0.5819 0.11712 0.291 0.21964 0.5819 0.23424 0.6044 0.21965 0.5595 0.11711 0.3134 0.11712 0.582 0.21965 0.2909 0.11712v0.10253l0.2686 0.11711 0.6044 0.21959 0.2686 0.11718 0.3133 0.21959v0.11717h0.291l0.2686 0.21959 0.6043 0.33677 0.582 0.23429 0.3133 0.21959 0.5596 0.33676v0.11712l0.582 0.21965 0.2909 0.23423 0.6044 0.21965 0.2686 0.21965v0.11712l0.3133 0.11711v0.21965l0.291 0.21959 0.2686 0.11717 0.3134 0.45389v0.10247l0.3133 0.11712 0.2462-0.11712 0.3134-0.33677v-0.21959l0.3133-0.21964-0.3133-0.11712 0.3133-0.11712 0.5596-0.10253 0.3134-0.11711h0.2686v-0.11712l0.2909-0.10253 0.3134-0.11712v0.11712l0.2686-0.11712v-0.21965l0.291-0.11711v-0.11712l0.5819-0.55641 0.6044-0.571 0.5819-0.33677 0.291-0.21959 0.5819-0.55641 0.291-0.11712 0.582-0.45388 0.6043-0.55641 0.5596-0.33676 0.3133-0.23424 1.1416 0.571 0.3133 0.10253h0.291l0.5819 0.35135h0.291l0.2686 0.10253 0.3134-0.21965 0.291 0.21965 0.5819 0.23424 0.8729 0.43923 0.3134 0.11718h0.2686l0.291-0.11718 0.6043-0.21959 0.582-0.33676 0.5595-0.21965 0.3134-0.11712 0.3133-0.11711 0.5596-0.21965 0.582-0.23424 0.2909-0.10252-1.1863-1.4641v-0.33677l1.1863-0.21964v-0.11712l1.4549-0.33677 0.6044-0.23429 0.5595-0.21959 0.3134-0.11712 0.8729-0.21964 0.582-0.21965 1.4772-0.33671 1.1416-0.33676 1.4772-0.67353 1.4549-0.35141h0.291l0.5819 0.23429h0.5596l0.6267 0.11712 0.8729 0.21965h0.5596l0.6043 0.11711h1.4549l0.3134-0.11711 0.8729-0.11718 1.1416-0.10247 0.8729-0.11712 1.4773-0.11717 1.4548-0.21959 1.4773-0.11712 1.4549-0.21965h0.2909l1.1416-0.11712 1.7458-0.21964 0.6267-0.11712h0.5596l0.3134-0.11712v-0.10253l0.5595-0.11711v-0.11712h0.6044l0.8953-0.10253 1.7459-0.11712h0.2686l0.6043-0.11712h0.5596l0.3133-0.10253h0.8729l1.1416-0.11711 0.9177-0.11712 1.1415-0.10247 1.7458-0.2343 1.1863-0.10247 1.7459-0.23429 0.5596-0.11712h0.8953l0.6043-0.10247h1.4325v-0.11718h3.8051l0.5819 0.11718h0.873l0.6043 0.10247 0.8729 0.11712h0.873l0.5819 0.11712 0.8729 0.21964 0.6044 0.11712 0.5819 0.11718 0.5596 0.10247h0.3134l0.8729 0.23423 0.5596 0.21965h0.3133l0.8729 0.21965 0.3134 0.11712 0.8729-0.55642 0.873-0.571 0.5595-0.33676 0.3134-0.21959v-0.11718l0.3133-0.11711 0.2463-0.21965 0.3133-0.33671 0.582-0.45394 0.2909-0.21959 0.3134-0.21964v-0.11712l0.2686-0.33677v-0.11711h0.291v-0.79065h-0.291v-0.21965l0.291-0.11711h0.5819v-0.10248l0.291-0.45388v-0.55641l0.3134-0.11712v-0.55641l-0.3134-0.11712v-0.21964l0.3134-0.23424v-0.45388l0.2686-0.10253v-0.33671l0.2909 0.10247 0.3134-0.33676 0.2686-0.21965 0.3134-0.21959v-0.11711l0.2909-0.11718 0.2686-0.10247-0.2686-0.23429-0.2909-0.10248v-0.11711l-0.3134-0.21965v-0.45388l0.3134-0.11712v-0.33676l0.2909-0.11712-0.2909-0.10253v-0.11712l-0.3134-0.21959 0.8729-0.33676h0.3134v-0.11718l0.291-0.3367v-0.45395l-0.291-0.10247v-0.11711h-1.1863l-0.2686-0.11712-0.3134-0.11718-0.5595-0.33676-1.1863-0.776-0.5596-0.23424-0.3134-0.43923v-0.11718l-0.2909-0.11712 1.4772-0.67353v-0.11711l-2.3725-1.1128-0.2463-0.11712 0.5596-0.79064 0.3134-0.33677 0.2686-0.45388 0.2909-0.55641 0.3134-0.89312h0.2686v-0.23424l0.291-1.0103 0.5819-0.89312v-0.11717l0.291-0.21959v-2.4745l-0.291-0.67347v-1.3617h0.6044l1.7458-0.10247 0.2686-0.23429 0.3134 0.11717 0.291 0.21959 0.5819 0.11718 0.6044 0.23423 1.1415 0.33677 0.3133 0.10247h0.291l0.582 0.11712 1.1639 0.21964h0.2686l-0.5596-0.55635-0.3134-0.21965-0.2686-0.11712v-0.11711l-0.2909-0.21965v-0.90776l-0.3134-1.0103v-0.43923l-0.2686-0.68818v-0.21959l-0.291-0.21965-0.3133-0.23429v-0.10247l-0.2686-0.11712v-0.11712l-0.3134-0.33676v-0.10253l-0.291-0.23424v-0.43923l-0.2685-0.68818v-1.0103h-0.873l-0.3133-0.43924v-0.23423l-0.291-0.33677v-0.43923l-0.3134-0.57106h0.6044l0.8729-0.11712 0.8729-0.10247 1.1863-0.11718h0.8729l0.2686-0.11711h0.873l1.4996-0.21965h0.8729l1.4325-0.11712 1.4997-0.21959v-0.11717h0.5596l0.8729-0.10247h0.5819l0.873-0.11712h0.8729v-0.11718h0.291v-0.10247h0.8953l0.5595-0.11712h0.9177v-0.11711l0.2686-0.10253 0.291-0.11712h0.8729v0.11712h0.582l0.3133-0.11712 0.291-0.11712v-0.10253l0.2686-0.23423 0.3134-0.11712v-0.10253h0.291v-0.23423l0.2686-0.10253v-0.11712h0.3133v-0.79065l0.291-0.10247v-0.11718h0.5819v-0.11711h0.5596l0.3134-0.10247v-0.2343h0.3133v-0.10247h0.2462v-0.11712h0.3134l0.3134-0.11717h0.2686l0.2909-0.10247h0.3134l0.291-0.11712 0.8729-0.11712h0.2686l0.3134-0.11718h0.3133v-0.10247l0.2462-0.11711v-0.21965l0.3134 0.10247h0.3133v-0.10247h0.2686l0.291-0.11712 0.3134-0.21965 0.2686-0.23423 0.2909-0.21965 0.3134-0.11712v-0.10247h0.5596l0.3133 0.10247 0.2686-0.10247 0.291-0.11717v-0.21959l-0.291-0.11718v-0.11711l0.291-0.21959v-0.11718h-0.291v-0.67347h-0.2686v-0.45394h-0.3133v-0.10247l-0.291-0.23424-0.2686-0.21964-0.3134-0.21965-0.2909-0.11712v-0.11712l-0.582-0.21964-0.291-0.11712v-0.10247h-0.2686v0.10247h-0.3133v0.23423h-0.3134v-0.11711h-0.2462v-0.21959l-0.3133-0.11718v-0.33676l-0.3134-0.11712v-1.1274h0.3134v-0.10247l0.3133-0.11712-0.3133-0.11718h-0.3134v-0.10247h-0.2686v-0.23423h0.2686v-0.89318h-0.2686l-0.291 0.11718h-0.5819v0.10247h-0.291v0.11712h-0.3134v-0.571h-0.2909v-0.10253h-0.2686v-0.11712h-0.3134l-0.3134-0.11712v-0.10247l-0.2462-0.11718-0.3133-0.21958v-0.11718l-0.3134-0.11712v-0.10247l-0.2686-0.11712v-0.45394l0.2686-0.10247v-0.11712l-0.2686-0.11711h-0.291v-0.10253h-0.3133v-0.11712l-0.5596-0.21965h-0.3133v-0.11712l-0.5596-0.11711-0.3134-0.21965-0.2686-0.11712-0.291-0.11712-0.3133-0.10253v-0.11711h-0.2686v-0.11712l-0.3134-0.10253-0.2909-0.11712v-0.21959h-0.2686l-0.3134-0.11717-0.291-0.11712-0.2686-0.10247h-0.3133v-0.11718l-0.291-0.11711v-0.21959l-0.3134-0.11718v-0.10247l-0.2685-0.11712v-0.11717h-0.6044l-0.2686-0.10247v-0.11712h-0.8729l-0.3134-0.11712-0.2909 0.11712h-0.2686l-0.3134 0.11712h-1.1639v-0.23424l0.291-0.33676v-0.89318h-0.291v-0.23424h-0.2686v-0.21964l0.2686-0.11712v-0.10247l0.291-0.11718v-0.45388l-0.291-0.33677v-0.10247h-0.2686l0.2686-0.11711v-0.2343l-0.2686-0.10247v-0.11712l-0.3133-0.11717v-0.10247l-0.3134-0.23424v-0.33676l-0.5596-0.10253-0.5819-0.23424h-0.291l-0.3134-0.21964-0.2686-0.33677v-0.79065l-0.2909-0.21958-0.3134 0.10247h-0.291l-0.5819-0.33677-0.3134-0.10247-0.2462-0.11712v-0.11717l0.2462-0.10247v-0.11712l-0.2462-0.11718v-0.10247l-0.3134-0.11712h-0.3133v-0.45388l-0.2686-0.10253v-0.11712h-0.6043v-0.11711h-0.2686v-0.10253l-0.291-0.23424-0.582-0.21965-0.2909-0.11711v-0.79065l-0.3134-0.21965v-0.3367h-0.2686l-0.6043-0.11718-0.2686-0.10247v-0.23429l-0.6044-0.776-0.2685-0.23424v-0.21965l-0.3134-0.11711v-1.2299l0.3134-0.23429v-0.33677l0.2685-0.10247v-0.68817l0.291-0.21959v-0.33677l-0.291-0.21964v-0.33677l0.291-0.11711h0.3134v-0.11712l0.2686 0.11712 0.3133-0.11712h0.291l0.2686 0.11712v0.11711l0.3134 0.10253v1.4642l0.2909 0.23423v0.21965h0.2686v0.11712h0.3134l0.291-0.2343 0.2686-0.10247h0.3133v0.10247l0.291 0.11718 0.2686-0.11718h0.6267v-0.10247l0.2462-0.11711 0.6267-0.11712 0.2686-0.10253h0.8953l0.2686-0.11712h0.6044l0.2686 0.67353h0.3133l0.5596-0.11718h0.8953v0.11718l0.291-0.11718h1.4549v0.11718l0.2909-0.11718v-0.21958l0.873-0.11712 0.8953-0.21965 1.4772-0.11712 0.873-0.11717 1.4548-0.43924v-0.11712l0.873-0.21964v-0.33677l-0.3134-0.23423v-0.33677l-0.2686-0.10247v-0.45388h-0.291l0.291-0.11718-0.291-0.10247v-0.23429h-0.3133v-0.11712h-0.2686v-0.10247l-0.3134-0.45388v-0.33677l-0.2909-0.11711h-0.582v-0.10253h-0.291l-0.2686 0.10253h-0.3133v-0.10253l-0.291-0.11712v-1.6838h0.291v-0.11717l0.3133 0.11717h0.2686l0.291 0.10247h0.3134l0.2686 0.11712 0.2909 0.11718h1.4549v-0.2343h0.3134v-0.10247h0.291v-0.33676h0.2686v-0.23429h0.3133v-0.10248l0.291-0.11711v-0.11718h0.2686v-0.10247h0.6043v-0.11712h0.2686v-0.11712h0.3134v-0.10252h0.3133v-0.33677l-0.3133-0.11712-0.3134-0.21964v-0.45389l-0.2686-0.23423v-1.0103l0.2686-0.33676v-0.21959l0.3134-0.33676 0.3133-0.11712 0.2462-0.21965 0.6268-0.45388v-0.21965l0.2686-0.23423v-0.33677l0.2909-0.10247v-0.11717l0.6044-0.45389 0.2686-0.33676 0.3133-0.33677 0.291-0.21958 0.582-0.21965 0.5595-0.23424 0.3134-0.10253v-0.11711l0.3133-0.23424 0.2686-0.33676h0.873l0.8729 0.11711h0.8729l0.291 0.11712 0.3133 0.10253 0.2686 0.11712 0.6044 0.23423 0.5819 0.10253v-0.10253h0.291l0.3134 0.10253h0.5595l0.873 0.11712h0.5819l0.3134 0.11712 0.5596 0.21965 0.6043 0.11711h1.4549v0.10247l1.1863 0.11718 0.8729 0.11712h0.2686v-0.79065l-0.2686-0.11712v-0.21964l-0.6267-0.571-0.2462-0.55642-0.3134-0.21958-0.3134-0.11718v-0.21959l-0.2686-0.23429-0.2909-0.55636h0.2909v-0.21964l0.2686-0.11712 0.6268-0.33677v-0.45388l-0.3134-0.21964v-0.33677l-0.3134-0.33671v-0.45394h-0.2686v-0.3367h-0.2909v-0.11718h-0.3134l-0.2686-0.33676v-0.11712h-0.291v-0.10247l-0.5819-0.2343h-0.291l-0.5819 0.11718v0.11712h-0.291v-0.11712l-0.3134-0.11718-0.2686-0.10247v-0.11711l-0.3133-0.11718v-0.10247h-0.291v-0.11712h-0.2686v-0.11712h-1.1863v0.11712l-0.291-0.11712-0.3133 0.11712h-0.5596v-0.67353l0.291-0.11712v-0.10253l0.2686-0.23423v-0.21965h0.3133v-0.11712h0.6044l0.2686-0.21964 0.2909-0.11712v-0.11712l0.3134-0.33676 0.2686-0.10247v-0.11718l0.291-0.11712 0.3133-0.10247 0.2686-0.11712v-0.11717l0.3134-0.10247h0.291v-0.2343l0.5819-0.10247v0.10247l0.291 0.2343h0.2686v-0.11712l0.3133-0.11718 0.291-0.10247 0.2686-0.23423 0.3134-0.10253 0.5595-0.11712v-0.11712h0.3134l0.3134 0.11712 0.2462-0.21965v0.10253h0.3133v-0.43929l0.3134-0.23424v-0.45388l-0.3134-0.89312 0.3134-0.33676v-0.79065l-0.3134-0.79065 0.3134-0.55641v-0.45388l-0.3134-0.33676v-0.55636l-0.3133-0.45388v-0.89318l-0.2462-0.67353-0.6268-0.23423v-0.21965l-0.2686-0.21959-0.2909-0.23429 0.2909-0.33676h0.582v-0.67348l-0.3134-0.33676h-0.2686v-0.21965l0.2686-0.33676v-0.45388h0.3134l0.3134 0.11711v-0.11711l0.2462-0.21959v-0.2343l0.3133-0.10247h0.3134l0.2686-0.11717h0.291l0.3133-0.11712v-0.10247h0.291v-0.11712h-0.291l-0.6043-0.33676-0.582-0.45389-0.3133-0.11717 0.3133-0.21959 0.3134-0.11718h0.5596v-0.10247l0.3133-0.11712v-0.33676l0.291-0.11712v-0.21965h0.2686v-0.11711h0.8729l0.6267-0.10253v0.10253h0.5596v-0.10253l0.3134 0.10253 0.2686 0.11711v-0.11711h0.6043v-0.10253l0.2686-0.11712v-0.11712h0.291l0.3133-0.10247h0.5596v-0.11717l0.3134-0.11712h0.2686l0.2909-0.11712v-0.21965h0.3134v-0.11711l0.2686-0.10248h0.3133v0.10248h0.291v-0.21965h0.2686v-0.11712h0.3134v-0.10247h0.6043v-0.67353h0.5596v-0.23429h0.3133v-0.10247h0.2686v-0.11712h0.291v-0.11712l-0.291-0.10253v-0.11712l0.291 0.11712v-0.11712h0.3134l0.2685-0.11711v-0.10253l0.3134-0.11712v-0.571l0.291-0.10253v-0.33671l-0.291-0.11717v-0.11712l0.291-0.10247zm-155.16 211.62h-0.2686l0.2686 0.11712zm-2.3278-0.55641h-0.3134l0.3134 0.11717zm-54.636 15.857h-0.3134v0.11712h0.3134zm-63.702 45.77h-0.291v0.21958h0.291v-0.11717zm180.85-73.882h-0.3134v-0.11718zm-185.24 78.04v0.21959h-0.582v-0.11712l0.291-0.10247v-0.11712z" fill="none" stroke="#000" stroke-width=".5793"/>
  </g>
 </g>
</svg>
